<?xml version="1.0" encoding="utf-8"?>
<!-- Generator: Adobe Illustrator 17.1.0, SVG Export Plug-In . SVG Version: 6.00 Build 0)  -->
<!DOCTYPE svg PUBLIC "-//W3C//DTD SVG 1.1//EN" "http://www.w3.org/Graphics/SVG/1.1/DTD/svg11.dtd">
<svg version="1.1" id="Layer_1" xmlns="http://www.w3.org/2000/svg" xmlns:xlink="http://www.w3.org/1999/xlink" x="0px" y="0px"
	 viewBox="-0.004 371.49 784.004 481.018" enable-background="new -0.004 371.49 784.004 481.018" xml:space="preserve">
<g>
	<g>
		<path fill="#313131" d="M54.05,766.617c0,0-2.22-0.978-6.384-2.812c-1.033-0.397-2.212-1.095-3.505-1.868
			c-1.298-0.77-2.717-1.61-4.248-2.519c-0.384-0.23-0.776-0.465-1.176-0.704c-0.366-0.263-0.738-0.532-1.117-0.805
			c-0.753-0.553-1.533-1.127-2.338-1.717c-0.8-0.602-1.625-1.224-2.475-1.863c-0.424-0.324-0.854-0.652-1.29-0.984
			c-0.404-0.367-0.815-0.741-1.231-1.119c-1.667-1.526-3.423-3.133-5.264-4.818c-1.69-1.835-3.404-3.817-5.217-5.874
			c-1.761-2.096-3.33-4.486-5.101-6.876c-0.921-1.176-1.617-2.522-2.413-3.844c-0.786-1.328-1.568-2.692-2.349-4.087l-0.59-1.05
			l-0.496-1.108c-0.33-0.743-0.664-1.492-1.001-2.247c-0.669-1.516-1.348-3.055-2.036-4.617c-0.555-1.546-1.119-3.114-1.69-4.706
			c-0.518-1.711-1.055-3.545-1.546-5.343c-1.766-7.03-2.698-14.695-2.576-22.635c0.065-7.952,1.342-16.117,3.382-24.266
			c2.165-8.106,5.098-16.221,8.821-24.104c7.369-15.832,17.222-31.044,27.931-45.964c1.345-1.856,2.697-3.719,4.052-5.589
			l2.048-2.79l1.028-1.395l0.659-0.874l0.532-0.679c2.834-3.626,5.687-7.276,8.559-10.949l2.157-2.759
			c0.741-0.919,1.575-1.831,2.359-2.75c1.595-1.833,3.193-3.671,4.794-5.514c3.21-3.681,6.381-7.451,9.854-10.841
			c3.416-3.471,6.795-7.008,10.28-10.454c3.61-3.319,7.231-6.646,10.858-9.981l2.723-2.5l2.847-2.365l5.717-4.712l5.722-4.712
			c1.915-1.561,3.961-2.962,5.935-4.449c4.006-2.901,7.912-5.94,11.997-8.717c4.134-2.707,8.264-5.41,12.384-8.108
			c2.032-1.394,4.174-2.609,6.309-3.828c2.133-1.221,4.264-2.44,6.391-3.657c2.126-1.216,4.251-2.43,6.371-3.642
			c2.187-1.108,4.368-2.215,6.547-3.32c4.263-2.133,8.386-4.327,12.939-6.26c2.224-0.993,4.442-1.984,6.656-2.972
			c2.21-0.998,4.415-1.987,6.641-2.811c4.441-1.722,8.834-3.483,13.231-5.135c4.449-1.503,8.868-2.995,13.248-4.476
			c17.655-5.514,35.114-9.421,51.803-12.136c16.706-2.695,32.677-3.735,47.391-4.223c3.683,0.005,7.288,0.008,10.811,0.013
			c1.761,0.003,3.501,0.005,5.22,0.008c1.719,0.079,3.416,0.158,5.091,0.235c3.349,0.163,6.611,0.322,9.782,0.476
			c3.169,0.161,6.233,0.565,9.208,0.822c2.972,0.29,5.848,0.57,8.623,0.842c2.76,0.397,5.422,0.781,7.979,1.15
			c2.554,0.371,5.006,0.724,7.347,1.065c2.338,0.355,4.543,0.865,6.646,1.259c4.197,0.849,7.957,1.533,11.199,2.261
			c3.226,0.8,5.97,1.481,8.194,2.032c4.444,1.103,6.813,1.692,6.813,1.692c1.883,0.468,3.03,2.373,2.562,4.254
			c-0.451,1.819-2.245,2.951-4.065,2.604l-0.178-0.035c0,0-2.349-0.453-6.751-1.303c-2.198-0.424-4.912-0.949-8.1-1.566
			c-3.201-0.543-6.907-1.016-11.038-1.63c-2.069-0.28-4.238-0.651-6.53-0.906c-2.296-0.231-4.697-0.473-7.201-0.724
			c-2.502-0.252-5.105-0.513-7.806-0.785c-2.71-0.146-5.519-0.297-8.42-0.451c-2.901-0.124-5.886-0.391-8.972-0.413
			c-3.084-0.03-6.255-0.062-9.51-0.094c-1.627-0.017-3.273-0.035-4.942-0.054c-1.667,0.059-3.356,0.116-5.063,0.176
			c-3.413,0.117-6.904,0.238-10.469,0.361c-3.555,0.282-7.186,0.568-10.883,0.862c-1.848,0.153-3.713,0.309-5.594,0.465
			c-1.873,0.236-3.763,0.476-5.67,0.716c-3.807,0.527-7.699,0.867-11.61,1.519c-3.909,0.659-7.877,1.328-11.9,2.006
			c-16.023,3.06-32.702,7.34-49.515,13.042c-4.174,1.504-8.383,3.022-12.622,4.55c-4.182,1.672-8.358,3.448-12.577,5.18
			c-2.135,0.837-4.176,1.808-6.221,2.782c-2.051,0.964-4.109,1.932-6.17,2.901c-4.105,1.816-8.311,4.155-12.512,6.367
			c-16.258,8.873-32.399,18.857-47.216,30.557c-1.866,1.442-3.802,2.795-5.611,4.31l-5.403,4.568l-5.398,4.56l-2.69,2.286
			l-2.567,2.42c-3.421,3.221-6.837,6.438-10.241,9.642c-3.28,3.33-6.46,6.746-9.676,10.092l-2.401,2.515
			c-0.82,0.825-1.6,1.672-2.326,2.547c-1.492,1.727-2.982,3.451-4.467,5.172c-1.487,1.717-2.97,3.431-4.451,5.14
			c-0.736,0.865-1.487,1.68-2.21,2.584l-2.145,2.769c-2.856,3.684-5.695,7.348-8.514,10.984l-0.528,0.681l-0.374,0.505l-1.008,1.378
			l-2.002,2.75c-1.316,1.833-2.629,3.657-3.936,5.475c-10.355,14.537-19.53,28.937-26.129,43.285
			c-3.325,7.157-5.978,14.268-7.932,21.237c-1.883,6.969-3.107,13.796-3.429,20.346c-0.693,13.084,1.794,25.101,6.18,34.959
			c4.263,9.912,9.824,17.88,15.198,23.687c0.322,0.379,0.639,0.755,0.953,1.124c0.345,0.337,0.684,0.667,1.02,0.994
			c0.676,0.654,1.332,1.288,1.967,1.903c1.285,1.194,2.403,2.544,3.597,3.413c1.167,0.963,2.247,1.855,3.237,2.67
			c0.991,0.822,1.866,1.603,2.868,2.219c3.758,2.564,5.762,3.931,5.762,3.931c1.61,1.098,2.026,3.294,0.929,4.903
			C57.415,766.803,55.578,767.291,54.05,766.617z"/>
		<path fill="#313131" d="M655.606,587.013c-1.907-13.957-14.438-22.052-27.691-16.416c-11.64,4.952-18.76,18.51-17.075,30.853
			c1.907,13.957,14.439,22.052,27.692,16.416C650.171,612.914,657.291,599.354,655.606,587.013z M636.836,586.705
			c-3.159,0.748-6.327-1.206-7.075-4.365c-0.748-3.159,1.206-6.326,4.365-7.075c3.159-0.748,6.327,1.206,7.075,4.365
			C641.949,582.789,639.995,585.957,636.836,586.705z"/>
		<path fill="#313131" d="M430.279,480.745c0,0,0.686-2.495,1.974-7.172c0.607-2.292,1.615-5.276,2.866-8.747
			c1.179-3.532,2.772-7.353,4.592-11.668c1.917-4.259,4.046-8.995,6.768-13.934c2.611-5.004,5.74-10.244,9.272-15.715
			c0.904-1.35,1.823-2.72,2.755-4.112l0.703-1.048l0.862-1.204c0.483-0.667,0.968-1.34,1.457-2.016
			c2.046-2.725,3.798-5.358,6.56-8.45c4.823-6.18,11.492-11.91,18.658-16.412c0.817-0.518,1.638-1.038,2.463-1.561
			c0.768-0.52,1.87-1.063,2.799-1.593c1.934-1.033,3.926-2.215,5.879-3.131c1.955-0.917,3.929-1.841,5.92-2.775
			c2.051-0.82,4.122-1.647,6.208-2.482l0.785-0.31l1.025-0.345l1.496-0.488c0.999-0.327,2.004-0.654,3.012-0.984
			c0.941-0.339,2.165-0.641,3.337-0.946c1.176-0.302,2.358-0.605,3.542-0.909c2.375-0.605,4.627-0.927,6.973-1.402
			c2.326-0.414,4.652-0.654,7.003-0.986l0.441-0.059l0.22-0.029l0.431-0.04l0.83-0.07l1.665-0.141
			c1.112-0.094,2.227-0.188,3.347-0.283c2.386-0.131,4.989-0.169,7.498-0.241c2.502,0.017,4.969,0.174,7.478,0.265
			c2.499,0.141,4.992,0.532,7.508,0.798l0.942,0.112l0.471,0.057l0.236,0.029c0.228,0.037-0.176-0.042,0.57,0.089l1.721,0.339
			c1.149,0.226,2.299,0.453,3.453,0.679c1.175,0.25,2.262,0.404,3.518,0.733c1.269,0.347,2.544,0.694,3.82,1.043
			c5.239,1.281,9.904,3.181,14.787,4.93c2.346,1.053,4.701,2.111,7.065,3.173l1.773,0.803l0.887,0.402l0.444,0.201l0.669,0.352
			l3.233,1.752c2.165,1.184,4.316,2.313,6.512,3.555c2.244,1.397,4.494,2.799,6.751,4.204l3.384,2.121l3.191,2.239
			c2.123,1.499,4.253,3.003,6.387,4.511c2.115,1.533,4.124,3.208,6.198,4.813l3.091,2.438l1.716,1.367l1.432,1.254
			c3.822,3.397,7.644,6.53,11.522,10.437l5.785,5.633l5.43,5.787c3.704,3.803,7.016,7.903,10.501,11.885l1.293,1.503l0.407,0.488
			l0.302,0.377l0.604,0.755l2.415,3.02l4.831,6.044c3.181,4.212,6.403,8.477,9.483,12.75c2.975,4.32,6.076,8.539,8.933,12.926
			l4.308,6.552l1.075,1.635l0.6,0.934l0.503,0.818l2.009,3.27c1.337,2.182,2.673,4.362,4.006,6.537
			c1.303,2.302,2.606,4.6,3.904,6.894l1.942,3.438l1.798,3.476c1.187,2.319,2.371,4.632,3.553,6.939
			c1.125,2.338,2.172,4.711,3.255,7.055l1.607,3.518l0.201,0.439l0.255,0.595l0.35,0.867l0.699,1.732
			c0.932,2.307,1.861,4.608,2.789,6.901c0.912,2.328,1.751,4.821,2.621,7.211c1.814,4.83,3.193,9.604,4.706,14.345
			c0.738,2.371,1.33,4.783,1.997,7.156l0.969,3.56l0.28,1.058l0.2,0.87l0.397,1.739c0.53,2.316,1.056,4.622,1.58,6.916
			c0.434,2.48,0.867,4.947,1.298,7.402c0.5,2.44,0.63,4.935,0.916,7.385c0.124,1.229,0.247,2.453,0.371,3.674
			c0.017,1.264,0.035,2.524,0.052,3.78c0.01,1.256,0.018,2.509,0.029,3.758l0.005,0.936l-0.076,1.085l-0.132,1.682
			c-0.047,1.016-0.278,2.502-0.459,3.812c-0.164,1.373-0.459,2.598-0.724,3.854c-1.11,5.004-2.97,9.845-5.408,14.177
			c-0.572,1.11-1.275,2.115-1.907,3.166l-0.243,0.389l-0.122,0.195l-0.241,0.354l-0.465,0.651l-0.926,1.298
			c-0.272,0.402-0.684,0.919-1.087,1.42l-1.197,1.489c-0.8,1.011-1.607,1.803-2.408,2.705c-3.263,3.45-6.874,6.428-10.655,8.933
			c-0.954,0.612-1.88,1.266-2.864,1.796l-1.456,0.828l-0.726,0.411l-0.362,0.205l-0.525,0.267c-0.887,0.433-1.769,0.865-2.648,1.295
			c-0.901,0.433-2.037,0.885-3.04,1.315c-4.077,1.67-7.892,2.873-11.727,3.857c-1.905,0.515-3.783,0.953-5.636,1.335
			c-1.856,0.429-3.679,0.743-5.48,1.078c-1.804,0.354-3.572,0.602-5.319,0.884l-1.306,0.205l-0.82,0.124l-0.632,0.076
			c-0.842,0.101-1.677,0.2-2.505,0.298c-3.329,0.381-6.513,0.812-9.686,1.119c-3.242,0.216-6.379,0.424-9.406,0.627
			c-3.024,0.191-5.962,0.438-8.697,0.433c-5.512,0.094-10.575,0.179-15.148,0.257c-9.118-0.029-16.243-0.28-21.116-0.344
			c-4.868-0.097-7.464-0.149-7.464-0.149c-3.24-0.065-5.814-2.743-5.75-5.985c0.064-3.186,2.655-5.727,5.821-5.75l0.169-0.002
			c0,0,2.562-0.017,7.367-0.047c4.798-0.065,11.863,0,20.798-0.208c4.452-0.179,9.381-0.377,14.747-0.594
			c2.708-0.047,5.413-0.337,8.247-0.572c2.829-0.24,5.762-0.486,8.791-0.743c3.079-0.359,6.317-0.859,9.619-1.303
			c0.827-0.116,1.66-0.231,2.499-0.347l0.63-0.087c0.091-0.012-0.221,0.029-0.017-0.002l0.153-0.027l0.305-0.054l1.226-0.218
			c1.637-0.299,3.314-0.563,4.964-0.926c1.659-0.344,3.352-0.667,5.012-1.088c1.684-0.382,3.361-0.807,5.022-1.293
			c3.324-0.911,6.721-2.088,9.78-3.411c0.766-0.354,1.445-0.604,2.299-1.033c0.87-0.446,1.744-0.896,2.621-1.345
			c0.696-0.412,1.395-0.827,2.098-1.243c0.77-0.423,1.464-0.954,2.197-1.44c2.886-1.999,5.594-4.327,8.014-6.988
			c0.565-0.672,1.249-1.362,1.731-2.021l0.768-0.988c0.257-0.324,0.511-0.629,0.825-1.112l0.899-1.315l0.451-0.659
			c-0.02,0.029,0.205-0.299-0.017,0.023l0.087-0.148l0.174-0.295c0.444-0.793,0.978-1.555,1.367-2.375
			c1.707-3.218,2.973-6.637,3.745-10.298c0.178-0.916,0.402-1.858,0.478-2.707c0.106-0.902,0.268-1.625,0.319-2.857l0.112-1.684
			l0.029-0.423l0.013-0.211c0.015-0.28-0.003,0.143-0.005,0.03l-0.02-0.758c-0.025-1.011-0.049-2.026-0.074-3.045
			c-0.02-1.018-0.042-2.039-0.062-3.064c-0.122-1.053-0.247-2.111-0.371-3.171c-0.278-2.116-0.391-4.261-0.865-6.381
			c-0.394-2.128-0.79-4.266-1.187-6.418c-0.552-2.286-1.105-4.585-1.662-6.892l-0.418-1.734l-0.21-0.869
			c-0.025-0.111,0.042,0.183-0.015-0.04l-0.06-0.21l-0.119-0.418l-0.958-3.352c-0.659-2.235-1.238-4.501-1.965-6.738
			c-1.484-4.456-2.866-9.044-4.57-13.392c-0.839-2.215-1.583-4.394-2.502-6.659c-0.954-2.282-1.91-4.571-2.871-6.867l-0.721-1.724
			l-0.361-0.862l-0.091-0.216c0.102,0.248-0.029-0.047-0.029-0.047l-0.193-0.409l-1.551-3.283c-1.045-2.188-2.049-4.4-3.131-6.584
			c-1.139-2.158-2.281-4.323-3.426-6.491l-1.727-3.248l-1.841-3.164c-1.226-2.113-2.455-4.229-3.686-6.349
			c-1.357-2.155-2.715-4.313-4.075-6.475l-2.048-3.247l-0.511-0.812l-0.184-0.283l-0.263-0.391l-1.056-1.565l-4.229-6.267
			c-2.8-4.196-5.854-8.241-8.772-12.376l-9.079-12.009l-4.856-6.025l-2.428-3.012l-0.607-0.753l-0.304-0.376
			c-0.131-0.163,0.01,0.008-0.062-0.074l-0.154-0.178l-1.234-1.422c-3.322-3.758-6.498-7.67-9.99-11.215l-5.126-5.427l-5.24-5.063
			c-3.319-3.372-7.392-6.711-11.175-10.045l-1.437-1.249c0.28,0.236-0.027-0.015-0.01,0.002l-0.181-0.141l-0.361-0.282l-0.721-0.563
			l-2.883-2.25c-1.932-1.481-3.803-3.039-5.77-4.449c-1.982-1.387-3.961-2.772-5.933-4.152l-2.953-2.059l-2.961-1.833
			c-1.967-1.226-3.929-2.448-5.884-3.667c-2.111-1.186-4.332-2.339-6.481-3.505l-3.24-1.739l-0.203-0.109
			c0.05,0.025-0.397-0.211,0.06,0.03l-0.392-0.174l-0.785-0.349l-1.566-0.698c-2.086-0.931-4.162-1.856-6.232-2.78
			c-4.233-1.477-8.48-3.185-12.497-4.127l-3.034-0.852c-1.028-0.278-2.282-0.461-3.408-0.696c-1.155-0.223-2.307-0.444-3.456-0.666
			l-1.721-0.332c0.604,0.106,0.054,0.017,0.138,0.035l-0.198-0.022l-0.397-0.044l-0.792-0.087c-2.113-0.203-4.204-0.543-6.3-0.647
			c-2.093-0.055-4.199-0.191-6.243-0.2c-2.037,0.084-3.959,0.092-6.059,0.205c-1.119,0.099-2.234,0.198-3.346,0.295l-1.665,0.148
			l-0.83,0.074c0.03-0.003-0.362,0.034,0.017-0.003l-0.191,0.027l-0.384,0.054c-2.036,0.304-4.095,0.517-6.071,0.879
			c-1.934,0.409-3.989,0.706-5.784,1.184c-0.9,0.233-1.798,0.465-2.691,0.694c-0.897,0.23-1.749,0.413-2.806,0.793
			c-1.006,0.334-2.009,0.666-3.007,0.996l-1.494,0.495l-0.372,0.124l-0.186,0.062c-0.309,0.106,0.21-0.075,0.096-0.032l-0.669,0.272
			c-1.784,0.721-3.552,1.434-5.306,2.143c-1.717,0.815-3.419,1.622-5.105,2.422c-1.692,0.795-3.117,1.687-4.672,2.499
			c-0.783,0.453-1.472,0.736-2.324,1.315c-0.823,0.527-1.642,1.05-2.457,1.571c-0.815,0.522-1.625,1.04-2.432,1.556l-0.302,0.193
			c-0.292,0.193,0.226-0.154,0.131-0.082l-0.122,0.096l-0.493,0.381l-0.983,0.756c-0.656,0.5-1.306,0.996-1.954,1.491l-0.973,0.734
			l-0.88,0.822c-1.172,1.09-2.333,2.168-3.478,3.233c-1.08,1.152-2.088,2.366-3.124,3.515c-2.034,2.096-4.154,5.162-6.185,7.729
			c-0.515,0.657-1.025,1.311-1.531,1.96l-0.602,0.771l-0.693,0.956c-0.922,1.269-1.83,2.519-2.723,3.75
			c-1.694,2.512-3.424,4.895-4.939,7.283c-1.56,2.363-3.092,4.628-4.425,6.886c-1.373,2.235-2.698,4.379-3.869,6.478
			c-1.184,2.093-2.393,4.053-3.406,5.983c-1.991,3.87-3.943,7.293-5.313,10.3c-1.441,3.005-2.775,5.51-3.704,7.808
			c-1.994,4.422-3.059,6.782-3.059,6.782c-1.337,2.963-4.823,4.283-7.786,2.946C430.854,486.463,429.519,483.494,430.279,480.745z"
			/>
		<path fill="#313131" d="M616.404,631.882c0,0,0.988,0.513,2.841,1.477c0.231,0.121,0.476,0.248,0.734,0.382
			c0.253,0.128,0.557,0.31,0.753,0.342c0.443,0.143,0.924,0.299,1.446,0.466c0.54,0.159,1.028,0.426,1.716,0.572
			c0.703,0.138,1.451,0.283,2.24,0.438c3.171,0.481,7.236,0.709,11.871-0.428c1.154-0.265,2.324-0.677,3.548-1.015
			c1.219-0.369,2.41-0.966,3.683-1.439l0.476-0.19l0.06-0.023c0.062-0.029-0.335,0.178-0.136,0.074l0.127-0.067l0.257-0.133
			l1.033-0.537c0.693-0.361,1.394-0.724,2.103-1.093c1.296-0.745,2.37-1.503,3.629-2.264c4.986-3.503,9.842-8.294,13.91-14.197
			c0.55-0.711,0.963-1.516,1.457-2.279l0.718-1.164l0.362-0.585c0.072-0.134-0.047,0.101-0.018,0.045l0.042-0.082l0.086-0.163
			l0.171-0.325c0.911-1.739,1.895-3.535,2.546-5.163c0.785-1.63,1.399-3.461,2.059-5.274c0.342-0.906,0.547-1.853,0.832-2.785
			c0.265-0.937,0.56-1.875,0.728-2.841c0.924-3.828,1.202-7.825,1.259-11.839c-0.044-1.003-0.087-2.009-0.131-3.017l-0.015-0.379
			l-0.008-0.189l-0.003-0.096c-0.017-0.168,0.02,0.122,0.01,0.055l-0.109-0.805l-0.226-1.612c-0.144-1.085-0.288-2.18-0.552-3.072
			l-0.689-2.849c-1.187-3.87-2.916-7.56-5.23-10.836c-2.413-3.205-5.433-5.846-8.809-7.959l-2.784-1.34
			c-0.486-0.205-1.041-0.56-1.469-0.641l-1.337-0.384c-0.914-0.223-1.697-0.632-2.725-0.716l-2.925-0.466
			c-3.953-0.282-7.949,0.124-11.794,1.189c-1.882,0.684-3.805,1.199-5.579,2.131l-1.352,0.627l-0.676,0.315
			c-0.062,0.029,0.24-0.129,0.07-0.037l-0.087,0.05l-0.176,0.102l-0.351,0.205l-2.794,1.628c-0.906,0.545-1.573,1.11-2.371,1.653
			l-1.149,0.813l-1.129,0.942c-0.748,0.634-1.492,1.266-2.234,1.895c-0.694,0.686-1.387,1.37-2.076,2.049
			c-2.685,2.789-5.088,5.782-7.065,8.955c-1.056,1.541-1.903,3.186-2.785,4.779l-0.253,0.461l-0.31,0.664l-0.615,1.323
			c-0.376,0.857-0.892,1.803-1.139,2.567c-0.59,1.603-1.236,3.114-1.695,4.801c-0.243,0.822-0.518,1.628-0.733,2.442
			c-0.19,0.82-0.377,1.633-0.563,2.438c-0.443,1.598-0.58,3.218-0.87,4.778c-0.223,1.57-0.282,3.119-0.438,4.627
			c0.015,1.509-0.047,2.988,0.012,4.422c0.057,0.714,0.112,1.42,0.168,2.118l0.079,1.038l0.018,0.258l0.01,0.129
			c0.029,0.243-0.035-0.26-0.023-0.181l0.012,0.07l0.092,0.565c0.124,0.751,0.245,1.492,0.366,2.224
			c0.127,0.708,0.215,1.528,0.399,2.034c0.345,1.145,0.572,2.244,0.937,3.334c1.422,4.539,3.646,7.907,5.559,10.466
			c0.511,0.617,0.996,1.201,1.452,1.751c0.465,0.542,0.993,0.946,1.425,1.387c0.444,0.431,0.855,0.828,1.233,1.192
			c0.371,0.372,0.805,0.59,1.14,0.852c1.385,0.999,2.125,1.534,2.125,1.534L616.404,631.882z M610.922,642.079
			c0,0-1.097-0.728-3.153-2.091c-0.498-0.362-1.114-0.696-1.679-1.201c-0.567-0.505-1.186-1.056-1.855-1.652
			c-0.646-0.617-1.427-1.207-2.083-1.991c-0.649-0.788-1.338-1.627-2.066-2.512c-2.769-3.607-5.566-8.48-7.161-14.412
			c-0.436-1.498-0.745-3.159-1.112-4.806c-0.215-0.884-0.243-1.528-0.35-2.284c-0.091-0.736-0.184-1.482-0.278-2.237l-0.07-0.568
			l-0.008-0.072c0.003,0.032-0.06-0.518-0.035-0.324l-0.007-0.159l-0.013-0.319L591,606.168c-0.032-0.862-0.064-1.732-0.096-2.614
			c-0.002-1.759,0.131-3.552,0.205-5.381c0.241-1.808,0.404-3.669,0.741-5.527c0.404-1.843,0.672-3.758,1.254-5.619
			c0.267-0.937,0.535-1.882,0.805-2.834c0.298-0.942,0.662-1.87,0.996-2.816c0.62-1.877,1.528-3.812,2.388-5.752
			c0.428-1.031,0.892-1.756,1.34-2.651l0.681-1.291l0.342-0.649l0.117-0.225l0.052-0.084l0.104-0.168l0.206-0.337
			c1.105-1.796,2.187-3.632,3.488-5.353c2.458-3.533,5.405-6.829,8.645-9.912c0.828-0.753,1.662-1.509,2.497-2.267
			c0.874-0.718,1.786-1.4,2.683-2.101c0.454-0.347,0.892-0.701,1.365-1.041l1.499-0.979c0.991-0.624,2.036-1.358,2.993-1.88
			c0.949-0.503,1.902-1.008,2.858-1.514l0.879-0.459l0.813-0.342l1.63-0.681c2.135-0.993,4.471-1.56,6.743-2.255
			c4.672-1.068,9.559-1.472,14.457-1.001c2.43,0.438,4.84,0.751,7.328,1.729l1.841,0.637c0.654,0.203,1.036,0.488,1.57,0.729
			l3.211,1.608c4.182,2.621,7.897,5.96,10.796,9.896c2.765,4.008,4.878,8.36,6.279,12.877c0.572,2.297,1.285,4.818,1.497,6.872
			l0.238,1.61l0.124,0.803l0.03,0.257l0.008,0.107l0.015,0.215l0.03,0.431c0.077,1.149,0.153,2.296,0.23,3.438
			c0.069,4.566-0.206,9.094-1.077,13.432c-0.822,4.372-1.937,8.5-3.587,12.572c-0.783,2.131-1.648,3.859-2.482,5.64l-0.156,0.334
			l-0.079,0.166l-0.146,0.29l-0.377,0.681l-0.755,1.355c-0.52,0.889-0.963,1.821-1.544,2.658
			c-4.315,6.907-9.533,12.797-15.259,17.288c-1.526,1.082-3.101,2.252-4.534,3.168c-0.688,0.407-1.368,0.81-2.039,1.209
			l-1.001,0.594l-0.248,0.148l-0.124,0.074l-0.335,0.174l-0.574,0.272c-1.536,0.699-2.995,1.467-4.508,2.017
			c-1.528,0.516-2.992,1.085-4.462,1.494c-5.888,1.722-11.494,1.783-15.996,1.28c-1.13-0.173-2.202-0.337-3.21-0.491
			c-1.015-0.178-2.039-0.558-2.951-0.817c-0.919-0.295-1.771-0.567-2.551-0.817c-0.776-0.26-1.166-0.513-1.682-0.729
			c-1.895-0.879-2.904-1.348-2.904-1.348L610.922,642.079z"/>
	</g>
	<g>
		<path fill="#313131" d="M161.365,773.693c-4.109,5.769-9.86,10.263-16.216,13.382c-5.333,2.432-11.001,4.176-16.82,4.947
			c-1.375,0.184-2.75,0.302-4.142,0.352c-3.605,0.151-7.244-0.184-10.783-0.906c-9.173-1.912-17.742-6.59-24.383-13.214
			c-3.404-3.387-6.289-7.278-8.569-11.504c-2.365-4.41-4.058-9.173-5.048-14.086c-1.006-4.964-1.291-10.062-0.838-15.109
			c0.402-4.327,1.358-8.62,2.884-12.695c2.935-7.798,7.999-14.824,14.472-20.09c6.557-5.333,14.556-8.838,22.907-10.146
			c4.142-0.57,8.351-0.755,12.527-0.486c3.974,0.285,7.915,0.973,11.705,2.163c3.756,1.174,7.362,2.834,10.682,4.913
			c3.471,2.163,6.641,4.796,9.458,7.764c1.258,1.425,1.962,3.421,1.694,5.266c-0.235,1.627-1.207,3.136-2.515,4.192
			c-1.291,1.073-2.901,1.694-4.545,1.694c-1.828,0.017-3.656-0.755-4.913-2.079c-2.13-2.264-4.511-4.293-7.177-5.886
			c-2.381-1.442-4.981-2.532-7.664-3.253c-2.7-0.721-5.467-1.073-8.251-1.157c-2.968-0.101-5.953,0.084-8.905,0.419
			c-3.991,0.62-7.915,1.778-11.521,3.605c-3.387,1.727-6.507,4.041-9.005,6.892c-2.583,2.951-4.511,6.456-5.785,10.162
			c-1.492,4.293-2.13,8.838-2.096,13.382c0.067,4.947,0.922,9.894,2.767,14.455c1.727,4.293,4.327,8.251,7.546,11.571
			c3.136,3.236,6.859,5.869,11.001,7.664c4.176,1.811,8.754,2.784,13.298,2.767c5.45-0.034,10.85-1.459,15.73-3.958
			c4.259-2.197,8.116-5.215,11.051-8.988c1.04-1.526,2.801-2.515,4.612-2.7c1.66-0.168,3.354,0.319,4.779,1.258
			c1.442,0.939,2.616,2.331,3.069,3.924C162.874,770.021,162.471,772.117,161.365,773.693z"/>
		<path fill="#313131" d="M696.765,749.679c-0.637-7.999-3.488-15.864-8.418-22.186c-2.398-3.102-5.316-5.819-8.569-8.049
			c-3.371-2.314-7.127-4.092-11.051-5.148c-3.605-0.973-7.362-1.358-11.118-1.375c-3.857,0-7.697,0.369-11.403,1.375
			c-3.941,1.073-7.714,2.851-11.085,5.182c-3.22,2.23-6.087,4.964-8.469,8.066c-2.381,3.136-4.276,6.641-5.668,10.33
			c-1.425,3.79-2.314,7.781-2.666,11.806c-0.218,5.282,0.319,10.615,1.895,15.646c1.526,4.813,3.991,9.357,7.261,13.231
			c3.639,4.31,8.234,7.781,13.365,10.078c5.249,2.365,11.018,3.488,16.769,3.488c5.735,0,11.487-1.14,16.719-3.488
			c5.148-2.297,9.793-5.769,13.416-10.095c3.253-3.857,5.685-8.401,7.194-13.231C696.497,760.278,697.05,754.945,696.765,749.679z
			 M681.102,761.904c-0.973,2.851-2.432,5.534-4.343,7.848c-3.555,4.075-8.452,6.976-13.734,8.167
			c-2.683,0.604-5.45,0.755-8.184,0.47c-2.666-0.285-5.316-0.989-7.747-2.113c-2.448-1.124-4.679-2.65-6.624-4.511
			c-0.939-0.889-1.794-1.861-2.599-2.901c-0.688-0.906-1.325-1.878-1.878-2.884c-2.247-3.991-3.22-8.586-3.237-13.164
			c-0.017-4.343,0.822-8.67,2.65-12.594c1.694-3.656,4.243-6.943,7.513-9.29c1.66-1.191,3.505-2.13,5.433-2.817
			c0.922-0.335,1.861-0.62,2.801-0.839c0.855-0.201,1.71-0.369,2.583-0.486c1.878-0.252,3.773-0.319,5.668-0.185
			c1.845,0.117,3.673,0.419,5.467,0.872c2.7,0.688,5.266,1.878,7.513,3.488c2.197,1.576,4.092,3.555,5.584,5.785
			c1.543,2.314,2.683,4.88,3.438,7.546c0.839,2.868,1.241,5.836,1.207,8.804C682.578,756.102,682.075,759.07,681.102,761.904z"/>
		<path fill="#313131" d="M516.895,698.683v85.927c0,3.807-3.253,6.792-7.077,6.792c-4.041,0-7.228-3.052-7.228-6.792v-85.927
			c0-3.74,3.186-6.808,7.228-6.808C513.642,691.875,516.895,694.877,516.895,698.683z"/>
		<path fill="#313131" d="M608.272,752.079c-0.084-4.477-0.755-8.955-2.13-13.214c-1.274-3.924-3.153-7.664-5.618-10.967
			c-2.415-3.237-5.4-6.054-8.754-8.284c-3.505-2.348-7.429-4.058-11.504-5.165c-3.706-1.006-7.563-1.509-11.403-1.509
			c-3.773,0-7.546,0.47-11.185,1.492c-3.337,0.922-6.557,2.331-9.508,4.142c-2.784,1.711-5.349,3.79-7.563,6.188
			c-4.31,4.645-7.362,10.431-8.988,16.585c-1.643,6.188-1.861,12.728-0.671,19.017c1.207,6.44,3.874,12.627,7.848,17.843
			c3.555,4.461,8.368,7.848,13.634,10.078c5.333,2.281,11.135,3.354,16.937,3.421c4.88,0.067,9.76-0.587,14.405-2.079
			c4.595-1.476,8.938-3.79,12.46-7.077c1.124-1.14,2.046-2.549,2.398-4.109c0.302-1.325,0.168-2.784-0.386-4.025
			c-0.721-1.543-2.113-2.767-3.723-3.354c-1.241-0.47-2.616-0.57-3.907-0.319c-1.425,0.268-2.767,0.956-3.84,1.945
			c-2.532,1.928-5.433,3.354-8.485,4.276c-3.018,0.906-6.171,1.308-9.324,1.274c-2.935-0.034-5.869-0.436-8.653-1.358
			c-2.515-0.839-4.913-2.113-7.01-3.756c-4.008-3.136-6.909-7.597-8.184-12.51h54.199c3.287,0,5.786-1.023,7.261-2.75
			C608.071,756.119,608.423,753.922,608.272,752.079z M544.464,748.019c1.375-10.062,7.311-17.759,17.424-20.409
			c4.058-1.207,8.67-1.342,12.778-0.537c0.52,0.134,1.023,0.268,1.543,0.402c9.76,2.499,16.384,10.129,17.943,20.543H544.464z"/>
		<path fill="#313131" d="M489.242,752.079v-0.151c-0.084-4.427-0.755-8.854-2.113-13.063c-1.275-3.924-3.153-7.664-5.618-10.967
			c-2.432-3.236-5.4-6.054-8.754-8.284c-3.522-2.348-7.429-4.058-11.504-5.165c-3.706-1.006-7.563-1.509-11.403-1.509
			c-3.773,0-7.546,0.47-11.185,1.492c-3.337,0.922-6.557,2.331-9.508,4.142c-2.784,1.71-5.349,3.79-7.563,6.188
			c-4.327,4.645-7.362,10.431-8.988,16.585c-1.643,6.188-1.861,12.728-0.671,19.017c1.207,6.439,3.874,12.627,7.848,17.843
			c3.555,4.461,8.368,7.848,13.634,10.078c5.333,2.281,11.135,3.354,16.937,3.421c4.88,0.067,9.76-0.587,14.405-2.079
			c4.578-1.476,8.938-3.79,12.46-7.077c1.124-1.14,2.046-2.549,2.398-4.109c0.302-1.325,0.168-2.784-0.386-4.025
			c-0.721-1.543-2.113-2.767-3.723-3.354c-1.241-0.47-2.616-0.57-3.907-0.319c-1.425,0.268-2.767,0.956-3.84,1.945
			c-2.532,1.928-5.433,3.354-8.485,4.276c-3.018,0.906-6.171,1.308-9.324,1.274c-2.935-0.034-5.869-0.436-8.653-1.358
			c-2.515-0.839-4.913-2.113-7.026-3.756c-3.991-3.136-6.892-7.597-8.167-12.51h54.199c3.287,0,5.769-1.023,7.261-2.75
			C489.058,756.119,489.41,753.922,489.242,752.079z M425.451,748.019c1.375-10.062,7.295-17.759,17.424-20.409
			c4.058-1.207,8.67-1.342,12.778-0.537c0.503,0.134,1.023,0.268,1.543,0.402c9.76,2.499,16.384,10.129,17.943,20.543H425.451z"/>
		<line fill="#313131" x1="487.325" y1="752.101" x2="487.325" y2="752.245"/>
		<path fill="#313131" d="M489.252,752.215c0-0.049-0.002-0.096,0.002-0.144c0-0.049-0.005-0.096-0.008-0.143"/>
		<path fill="#313131" d="M396.876,746.376v38.385c0,1.878-0.755,3.823-2.096,5.098c-1.325,1.241-3.22,1.845-5.131,1.845
			c-1.912,0.017-3.857-0.604-5.148-1.878c-1.274-1.274-1.928-3.22-1.928-5.064v-37.933c-0.268-11.286-9.19-19.302-20.274-19.302
			c-14.086,0-25.003,10.179-25.003,25.724v31.51c0,1.878-0.755,3.823-2.096,5.098c-1.325,1.241-3.22,1.845-5.131,1.845
			c-1.895,0-3.79-0.604-5.115-1.845c-1.358-1.274-2.113-3.22-2.113-5.098v-35.518c0-2.8-0.402-5.601-1.274-8.251
			c-0.838-2.515-2.096-4.897-3.807-6.926c-0.839-0.989-1.778-1.878-2.817-2.65c-0.755-0.553-1.543-1.057-2.365-1.476
			c-1.291-0.671-2.666-1.191-4.075-1.56c-1.425-0.369-2.901-0.587-4.377-0.671c-1.325-0.067-2.65-0.05-3.974,0.084
			c-2.381,0.218-4.746,0.771-6.959,1.643c-4.41,1.744-8.318,4.746-11.051,8.62c-1.409,2.012-2.515,4.259-3.237,6.607
			c-0.805,2.532-1.191,5.199-1.191,7.865v32.231c0,1.945-0.872,3.907-2.331,5.165c-1.291,1.107-3.069,1.66-4.83,1.643
			c-1.761,0-3.505-0.57-4.813-1.694c-1.442-1.241-2.331-3.186-2.331-5.115v-64.026c0-3.807,3.186-6.943,7.094-6.943
			c4.075,0,6.926,3.337,6.926,6.943v3.773c6.339-7.295,15.562-10.716,25.003-10.716c11.739,0,23.561,5.299,29.196,16.199
			c2.281-3.924,5.484-7.295,9.206-9.877c3.673-2.532,7.848-4.31,12.191-5.316c7.127-1.643,14.69-1.258,21.599,1.124
			c3.052,1.057,5.97,2.515,8.636,4.343c2.666,1.828,5.081,4.058,7.077,6.59c2.063,2.633,3.689,5.618,4.779,8.787
			C396.322,739.083,396.876,742.737,396.876,746.376z"/>
		<path fill="#313131" d="M242.412,716.912c-0.771-1.14-1.895-2.029-3.169-2.549c-1.811-0.755-3.924-0.771-5.735-0.034
			c-1.274,0.52-2.415,1.409-3.136,2.566c-0.721,1.157-1.04,2.566-1.04,3.941c-5.769-5.584-13.835-7.496-20.66-7.613
			c-5.534-0.151-11.051,0.604-15.948,2.75c-3.488,1.342-6.741,3.253-9.626,5.651c-2.834,2.331-5.299,5.131-7.295,8.2
			c-4.025,6.188-6.104,13.533-6.372,20.945c-0.235,6.926,1.107,13.902,4.058,20.157c1.425,3.002,3.22,5.836,5.349,8.385
			c2.18,2.566,4.712,4.83,7.479,6.741c3.186,2.264,6.808,3.84,10.565,4.93c3.639,1.04,7.412,1.627,11.168,1.56
			c3.857-0.05,7.697-0.805,11.286-2.23c3.756-1.492,7.228-3.74,9.978-6.674v0.838c0,1.861,0.637,3.79,1.912,5.098
			c1.291,1.325,3.236,1.996,5.182,1.996c1.928,0,3.84-0.654,5.148-1.962c1.342-1.291,2.079-3.237,2.079-5.131v-63.59
			C243.636,719.477,243.2,718.052,242.412,716.912z M222.54,773.494c-3.907,3.455-9.29,5.333-15.411,5.333
			c-2.448-0.201-4.88-0.688-7.177-1.509c-2.314-0.838-4.511-2.029-6.456-3.522c-3.32-2.767-6.071-6.339-7.714-10.313
			c-1.593-3.891-2.146-8.2-1.996-12.46c0.101-3.421,0.654-6.808,1.979-9.928c0.906-2.23,2.18-4.31,3.773-6.121
			c1.543-1.744,3.387-3.253,5.4-4.444c4.041-2.415,8.77-3.639,13.483-3.572c2.851,0.134,5.702,0.604,8.402,1.576
			c2.398,0.872,4.695,2.146,6.59,3.857c1.861,1.677,3.354,3.79,4.343,6.104c1.14,2.7,1.56,5.668,1.56,8.586
			c0.017,3.756,0.017,7.513,0.017,11.269C228.996,765.023,226.464,770.054,222.54,773.494z"/>
		<path fill="#313131" d="M784,746.795v37.966c0,1.845-0.654,3.79-1.928,5.064c-1.308,1.274-3.237,1.895-5.165,1.878
			c-1.895,0-3.79-0.604-5.115-1.845c-1.342-1.274-2.113-3.22-2.113-5.098v-37.966c0-12.141-9.676-20.409-20.258-20.409
			c-12.845,0-25.003,10.598-25.003,25.138v33.237c0,1.845-0.654,3.79-1.928,5.064c-1.308,1.274-3.237,1.878-5.148,1.878
			c-1.945,0.017-3.891-0.57-5.249-1.845c-1.358-1.258-2.13-3.203-2.13-5.098v-64.177c0-1.945,0.855-3.907,2.281-5.182
			c1.291-1.124,3.052-1.727,4.813-1.727c1.761,0.017,3.522,0.604,4.813,1.761c1.442,1.308,2.264,3.32,2.264,5.299v2.482
			c2.297-2.683,5.148-4.863,8.267-6.507c3.136-1.627,6.557-2.7,10.045-3.304c3.421-0.604,6.926-0.771,10.38-0.47
			c3.237,0.285,6.439,0.973,9.492,2.079c3.018,1.107,5.903,2.633,8.502,4.528c2.633,1.945,4.981,4.276,6.892,6.909
			c2.029,2.767,3.572,5.886,4.612,9.156C783.463,739.215,784,743.005,784,746.795z"/>
	</g>
	<g>
		<path fill="#313131" d="M311.155,841.826h-14.17c-1.09,0-2.016-0.872-2.016-1.962v-30.74c0-1.088,0.926-1.962,2.016-1.962h12.918
			c5.068,0,12.916,1.69,12.916,9.429c0,2.832-1.362,5.341-4.196,6.485c3.978,1.254,6.703,4.033,6.703,8.448
			C325.327,839.646,318.024,841.826,311.155,841.826z M298.947,810.704v11.12h11.12c4.687,0,8.774-1.254,8.774-5.232
			c0-4.687-5.559-5.888-8.938-5.888L298.947,810.704L298.947,810.704z M298.947,838.283h12.208c4.796,0,10.084-1.254,10.084-6.758
			c0-4.305-3.706-6.159-8.447-6.159h-13.845V838.283z"/>
		<path fill="#313131" d="M335.571,818.607c1.744-3.652,5.014-4.633,8.121-4.633c1.253,0,2.071,0.656,2.071,1.908
			c0,1.199-0.818,1.853-2.071,1.853c-5.614,0-8.011,4.469-8.011,9.973v12.319c0,1.145-0.927,1.908-1.964,1.908
			c-1.199,0-2.016-0.763-2.016-1.908v-24.145c0-2.398,3.87-2.616,3.87,0v2.725H335.571z"/>
		<path fill="#313131" d="M353.828,809.996c0,2.452-4.088,2.507-4.088,0v-2.453c0-2.507,4.088-2.507,4.088,0V809.996z
			 M349.795,815.882c0-2.343,3.978-2.398,3.978-0.054v24.581c0,2.398-3.978,2.343-3.978,0V815.882z"/>
		<path fill="#313131" d="M383.967,825.801c0-5.014-4.033-8.502-8.447-8.502c-5.287,0-10.246,4.362-10.246,10.303v12.644
			c0,1.199-0.709,1.908-1.962,1.908c-1.254,0-2.071-0.709-2.071-1.908v-24.418c0-2.507,3.924-2.561,3.924,0.054v3.381
			c1.962-3.979,6.159-5.67,10.411-5.67c6.322,0,12.373,4.362,12.373,12.208v14.444c0,1.199-0.709,1.908-1.962,1.908
			c-1.201,0-2.017-0.709-2.017-1.908v-14.444H383.967z"/>
		<path fill="#313131" d="M421.626,840.518c0,7.904-5.995,11.99-13.461,11.99c-4.144,0-7.467-0.981-10.411-3.76
			c-2.18-2.126,0.817-4.633,2.671-2.834c2.725,2.071,4.687,2.725,7.739,2.725c4.959,0,9.592-2.507,9.592-8.121v-2.943
			c-1.908,3.434-5.45,4.742-8.72,4.796c-2.071,0.054-4.033-0.273-5.886-1.036c-5.068-2.069-8.175-7.03-8.284-12.535
			c-0.164-6.324,2.779-11.719,8.72-14.17c1.69-0.656,3.488-0.927,5.123-0.927c3.325,0,7.14,1.253,8.94,4.251v-2.071
			c0-1.199,0.708-1.962,1.962-1.962c1.199,0,2.016,0.763,2.016,1.962v24.636H421.626z M402.824,819.481h0.054
			c-2.997,2.452-4.142,5.722-4.033,9.263c0.055,1.419,0.327,2.889,0.818,4.033c1.526,3.815,5.45,5.888,9.32,5.832h-0.054
			c4.905-0.218,8.72-3.76,8.72-8.393v-4.305c0-3.434-1.419-6.049-4.633-7.467C409.745,816.972,405.821,817.19,402.824,819.481z"/>
		<path fill="#313131" d="M433.67,809.996c0,2.452-4.088,2.507-4.088,0v-2.453c0-2.507,4.088-2.507,4.088,0V809.996z
			 M429.638,815.882c0-2.343,3.978-2.398,3.978-0.054v24.581c0,2.398-3.978,2.343-3.978,0V815.882z"/>
		<path fill="#313131" d="M463.81,825.801c0-5.014-4.033-8.502-8.447-8.502c-5.287,0-10.246,4.362-10.246,10.303v12.644
			c0,1.199-0.709,1.908-1.962,1.908c-1.254,0-2.071-0.709-2.071-1.908v-24.418c0-2.507,3.924-2.561,3.924,0.054v3.381
			c1.962-3.979,6.159-5.67,10.411-5.67c6.322,0,12.373,4.362,12.373,12.208v14.444c0,1.199-0.709,1.908-1.962,1.908
			c-1.201,0-2.017-0.709-2.017-1.908v-14.444H463.81z"/>
		<path fill="#313131" d="M501.469,840.518c0,7.904-5.995,11.99-13.461,11.99c-4.144,0-7.467-0.981-10.411-3.76
			c-2.18-2.126,0.817-4.633,2.671-2.834c2.725,2.071,4.687,2.725,7.739,2.725c4.959,0,9.592-2.507,9.592-8.121v-2.943
			c-1.908,3.434-5.45,4.742-8.72,4.796c-2.071,0.054-4.033-0.273-5.886-1.036c-5.068-2.069-8.175-7.03-8.284-12.535
			c-0.164-6.324,2.779-11.719,8.72-14.17c1.69-0.656,3.488-0.927,5.123-0.927c3.325,0,7.14,1.253,8.94,4.251v-2.071
			c0-1.199,0.708-1.962,1.962-1.962c1.199,0,2.016,0.763,2.016,1.962v24.636H501.469z M482.665,819.481h0.054
			c-2.997,2.452-4.142,5.722-4.033,9.263c0.055,1.419,0.327,2.889,0.818,4.033c1.526,3.815,5.45,5.888,9.32,5.832h-0.054
			c4.905-0.218,8.72-3.76,8.72-8.393v-4.305c0-3.434-1.419-6.049-4.633-7.467C489.588,816.972,485.662,817.19,482.665,819.481z"/>
		<path fill="#313131" d="M537.055,816.972c-5.941,0-9.973,4.851-9.973,11.065c0,2.453,0.708,5.232,2.343,7.194
			c1.908,2.343,4.905,3.599,7.848,3.599c2.889,0,6.049-0.983,7.957-3.599c1.362-1.853,4.633,0.272,2.78,2.398
			c-2.671,3.27-6.758,4.851-10.793,4.851c-4.088,0-8.229-1.689-10.956-4.851c-2.287-2.832-3.433-6.703-3.215-10.682
			c0.436-8.066,6.159-13.572,14.442-13.572c3.926,0,7.087,1.308,10.028,4.633c1.58,1.798-1.362,4.088-2.889,2.289
			C542.563,817.899,539.781,816.972,537.055,816.972z"/>
		<path fill="#313131" d="M555.748,837.411c-2.452-2.889-3.488-6.377-3.324-10.464c0.545-6.049,4.088-11.118,10.083-12.809
			c1.308-0.382,2.78-0.49,4.144-0.49c1.306,0,2.616,0.107,4.031,0.49c5.941,1.69,9.648,6.704,10.139,12.809
			c0.218,4.088-0.874,7.576-3.27,10.464c-2.671,3.216-6.595,4.907-10.9,4.907C562.289,842.318,558.42,840.627,555.748,837.411z
			 M566.595,817.354c-1.035,0-2.069,0.164-2.889,0.382c-4.576,1.199-7.248,5.45-7.248,10.355c0,2.453,0.763,5.014,2.398,6.922
			c1.908,2.289,4.796,3.597,7.794,3.597c2.943,0,5.94-1.417,7.848-3.597c1.526-1.853,2.398-4.469,2.398-6.812
			c0-4.96-2.67-9.265-7.301-10.464C568.72,817.519,567.631,817.354,566.595,817.354z"/>
		<path fill="#313131" d="M590.3,840.191c0,1.035-0.872,1.851-1.962,1.851c-1.199,0-2.016-0.817-2.016-1.851v-32.702
			c0-1.036,0.817-1.853,2.016-1.853c1.09,0,1.962,0.817,1.962,1.853V840.191z"/>
		<path fill="#313131" d="M599.401,837.411c-2.452-2.889-3.488-6.377-3.324-10.464c0.545-6.049,4.088-11.118,10.083-12.809
			c1.308-0.382,2.78-0.49,4.144-0.49c1.306,0,2.616,0.107,4.031,0.49c5.941,1.69,9.647,6.704,10.139,12.809
			c0.218,4.088-0.874,7.576-3.27,10.464c-2.671,3.216-6.595,4.907-10.9,4.907C605.943,842.318,602.073,840.627,599.401,837.411z
			 M610.248,817.354c-1.035,0-2.069,0.164-2.889,0.382c-4.576,1.199-7.248,5.45-7.248,10.355c0,2.453,0.763,5.014,2.398,6.922
			c1.908,2.289,4.796,3.597,7.794,3.597c2.943,0,5.94-1.417,7.848-3.597c1.526-1.853,2.398-4.469,2.398-6.812
			c0-4.96-2.67-9.265-7.301-10.464C612.374,817.519,611.284,817.354,610.248,817.354z"/>
		<path fill="#313131" d="M634.662,818.607c1.744-3.652,5.014-4.633,8.121-4.633c1.253,0,2.071,0.656,2.071,1.908
			c0,1.199-0.818,1.853-2.071,1.853c-5.614,0-8.011,4.469-8.011,9.973v12.319c0,1.145-0.927,1.908-1.964,1.908
			c-1.199,0-2.016-0.763-2.016-1.908v-24.145c0-2.398,3.87-2.616,3.87,0v2.725H634.662z"/>
		<path fill="#313131" d="M682.187,841.497l0.054-0.054c-1.69,0.709-3.542,1.035-5.232,1.035c-3.27,0-7.087-1.417-8.938-4.794v2.561
			c0,1.199-0.599,1.908-1.853,1.908c-1.253,0-2.016-0.709-2.016-1.908v-32.92c0-2.507,3.978-2.507,3.978,0v10.846
			c1.637-2.889,5.178-4.415,8.831-4.415c8.175,0,13.734,5.832,13.952,13.572C691.125,833.651,688.127,839.047,682.187,841.497z
			 M682.95,836.648c2.943-2.452,4.088-5.722,4.031-9.265c-0.054-1.417-0.382-2.888-0.817-4.031c-1.58-3.761-5.45-5.832-9.32-5.832
			c-4.96,0.218-8.667,3.597-8.667,8.393v4.305c0,5.343,4.197,8.502,9.158,8.502C679.407,838.556,681.369,837.902,682.95,836.648z"/>
		<path fill="#313131" d="M704.533,814.792c1.798-0.817,3.761-1.088,5.832-1.035c3.107,0.054,6.651,1.035,8.613,4.251v-2.071
			c0-1.145,0.708-1.962,1.962-1.962c1.199,0,2.016,0.817,2.016,1.962v24.2c0,1.199-0.817,1.962-2.016,1.962
			c-1.254,0-1.962-0.763-1.962-1.962v-2.616c-1.58,3.161-5.614,4.959-8.831,4.959c-2.616,0-5.559-0.708-7.848-2.343
			c-4.144-2.832-6.268-7.466-6.106-12.809c0.109-5.504,3.161-10.573,8.393-12.591L704.533,814.792z M718.976,830.217v-4.305
			c0-5.396-3.761-8.175-8.667-8.393c-3.87-0.055-7.793,2.016-9.32,5.832c-0.491,1.145-0.763,2.616-0.817,4.031
			c-0.109,3.543,1.035,6.813,3.978,9.265c1.637,1.254,3.599,1.908,5.614,2.071C714.779,838.719,718.703,835.667,718.976,830.217z"/>
		<path fill="#313131" d="M743.718,816.972c-5.941,0-9.973,4.851-9.973,11.065c0,2.453,0.708,5.232,2.343,7.194
			c1.908,2.343,4.905,3.599,7.848,3.599c2.889,0,6.049-0.983,7.957-3.599c1.362-1.853,4.633,0.272,2.78,2.398
			c-2.671,3.27-6.758,4.851-10.793,4.851c-4.088,0-8.229-1.689-10.956-4.851c-2.287-2.832-3.433-6.703-3.215-10.682
			c0.436-8.066,6.159-13.572,14.442-13.572c3.926,0,7.087,1.308,10.028,4.633c1.58,1.798-1.362,4.088-2.889,2.289
			C749.223,817.899,746.443,816.972,743.718,816.972z"/>
		<path fill="#313131" d="M778.324,814.411c2.126-1.908,4.907,0.761,2.834,2.725l-10.193,9.428l11.227,12.373
			c1.853,2.235-1.417,4.523-3.107,2.343l-11.118-12.48l-3.216,2.889v8.502c0,2.452-3.978,2.561-3.978,0v-32.595
			c0-2.234,3.978-2.234,3.978,0v19.676l3.761-3.706L778.324,814.411z"/>
	</g>
</g>
</svg>
