<?xml version="1.0" encoding="utf-8"?>
<!-- Generator: Adobe Illustrator 16.0.0, SVG Export Plug-In . SVG Version: 6.00 Build 0)  -->
<!DOCTYPE svg PUBLIC "-//W3C//DTD SVG 1.1//EN" "http://www.w3.org/Graphics/SVG/1.1/DTD/svg11.dtd">
<svg version="1.1" id="Layer_2" xmlns="http://www.w3.org/2000/svg" xmlns:xlink="http://www.w3.org/1999/xlink" x="0px" y="0px"
	 width="83.557px" height="83.558px" viewBox="0 0 83.557 83.558" enable-background="new 0 0 83.557 83.558" xml:space="preserve">
<g id="XMLID_1_">
	<g>
		<path fill="#99CB54" d="M62.395,6.021c19.75,11.39,26.52,36.63,15.14,56.37c-11.39,19.75-36.62,26.53-56.37,15.14
			c-19.75-11.38-26.53-36.62-15.14-56.37C17.415,1.42,42.645-5.359,62.395,6.021z M68.794,35.561c1.39-1.39,1.39-3.65,0-5.04
			l-4.6-4.6c-1.39-1.39-3.65-1.39-5.04,0l-22.14,22.14l-12.37-12.38c-1.39-1.39-3.65-1.39-5.05,0l-4.59,4.6
			c-1.39,1.39-1.39,3.65,0,5.04l19.49,19.5c1.39,1.39,3.65,1.39,5.05,0L68.794,35.561z"/>
	</g>
</g>
</svg>
