<?xml version="1.0" encoding="utf-8"?>
<!-- Generator: Adobe Illustrator 16.0.0, SVG Export Plug-In . SVG Version: 6.00 Build 0)  -->
<!DOCTYPE svg PUBLIC "-//W3C//DTD SVG 1.1//EN" "http://www.w3.org/Graphics/SVG/1.1/DTD/svg11.dtd">
<svg version="1.1" id="Layer_1" xmlns="http://www.w3.org/2000/svg" xmlns:xlink="http://www.w3.org/1999/xlink" x="0px" y="0px"
	 width="749.962px" height="754.462px" viewBox="0 0 749.962 754.462" enable-background="new 0 0 749.962 754.462"
	 xml:space="preserve">
<g>
	<defs>
		<rect id="SVGID_1_" x="-19.108" y="-233.11" width="784" height="1224"/>
	</defs>
	<clipPath id="SVGID_2_">
		<use xlink:href="#SVGID_1_"  overflow="visible"/>
	</clipPath>
	<path clip-path="url(#SVGID_2_)" fill="#313131" d="M5.614,378.89c0,97.817,38.696,191.239,107.861,260.407
		c69.169,69.171,162.596,107.871,260.417,107.871c97.817,0,191.239-38.696,260.407-107.861
		C703.47,570.138,742.17,476.711,742.17,378.89c0-97.817-38.696-191.239-107.861-260.407
		C565.14,49.312,471.713,10.612,373.892,10.612c-97.817,0-191.239,38.696-260.407,107.861
		C44.314,187.642,5.614,281.069,5.614,378.89"/>
</g>
<g>
	<defs>
		<rect id="SVGID_3_" x="-19.108" y="-233.11" width="784" height="1224"/>
	</defs>
	<clipPath id="SVGID_4_">
		<use xlink:href="#SVGID_3_"  overflow="visible"/>
	</clipPath>
	<path clip-path="url(#SVGID_4_)" fill="#EC008C" d="M373.892,26.952c-32.395,0-58.656,26.261-58.656,58.656
		c0,32.396,26.261,58.657,58.656,58.657c32.395,0,58.656-26.262,58.656-58.657C432.548,53.213,406.287,26.952,373.892,26.952"/>
	<path clip-path="url(#SVGID_4_)" fill="#FAB523" d="M637.845,339.598c-21.7,16.198-26.161,46.92-9.964,68.621
		s46.92,26.162,68.62,9.965c21.701-16.198,26.162-46.92,9.964-68.621C690.269,327.862,659.546,323.4,637.845,339.598"/>
	<path clip-path="url(#SVGID_4_)" fill="#BFE13B" d="M491.205,593.587c-21.701,16.198-26.162,46.92-9.964,68.62
		c16.197,21.701,46.92,26.162,68.62,9.965c21.701-16.198,26.162-46.92,9.964-68.621
		C543.627,581.851,512.906,577.389,491.205,593.587"/>
	<path clip-path="url(#SVGID_4_)" fill="#40BFB2" d="M197.923,593.587c-21.701,16.198-26.162,46.92-9.964,68.62
		c16.197,21.701,46.92,26.162,68.62,9.965c21.701-16.198,26.162-46.92,9.964-68.621
		C250.346,581.851,219.624,577.389,197.923,593.587"/>
	<path clip-path="url(#SVGID_4_)" fill="#3B83D5" d="M51.282,339.598c-21.701,16.198-26.162,46.92-9.964,68.621
		c16.197,21.7,46.92,26.162,68.62,9.965c21.701-16.198,26.162-46.92,9.964-68.621C103.705,327.862,72.983,323.4,51.282,339.598"/>
	<path clip-path="url(#SVGID_4_)" fill="#B12CA4" d="M197.923,85.608c-21.701,16.198-26.162,46.92-9.964,68.62
		c16.197,21.701,46.92,26.162,68.62,9.965c21.701-16.198,26.162-46.92,9.964-68.621C250.346,73.873,219.624,69.411,197.923,85.608"
		/>
	<path clip-path="url(#SVGID_4_)" fill="#F13D69" d="M491.205,85.608c-21.701,16.198-26.162,46.92-9.964,68.62
		c16.197,21.701,46.92,26.162,68.62,9.965c21.701-16.198,26.162-46.92,9.964-68.621C543.627,73.873,512.906,69.411,491.205,85.608"
		/>
	<path clip-path="url(#SVGID_4_)" fill="#F67946" d="M627.881,173.593c-32.395,0-58.656,26.261-58.656,58.656
		s26.262,58.657,58.656,58.657c32.396,0,58.656-26.262,58.656-58.657S660.277,173.593,627.881,173.593"/>
	<path clip-path="url(#SVGID_4_)" fill="#FFF200" d="M627.881,466.875c-32.395,0-58.656,26.261-58.656,58.656
		c0,32.395,26.262,58.657,58.656,58.657c32.396,0,58.656-26.263,58.656-58.657C686.538,493.135,660.277,466.875,627.881,466.875"/>
	<path clip-path="url(#SVGID_4_)" fill="#80D077" d="M373.892,613.515c-32.395,0-58.656,26.262-58.656,58.656
		c0,32.396,26.261,58.657,58.656,58.657c32.395,0,58.656-26.262,58.656-58.657C432.548,639.777,406.287,613.515,373.892,613.515"/>
	<path clip-path="url(#SVGID_4_)" fill="#00AEED" d="M119.903,466.875c-32.395,0-58.656,26.261-58.656,58.656
		c0,32.395,26.261,58.657,58.656,58.657s58.656-26.263,58.656-58.657C178.559,493.135,152.298,466.875,119.903,466.875"/>
	<path clip-path="url(#SVGID_4_)" fill="#7657BD" d="M119.903,173.593c-32.395,0-58.656,26.261-58.656,58.656
		s26.261,58.657,58.656,58.657s58.656-26.262,58.656-58.657S152.298,173.593,119.903,173.593"/>
</g>
</svg>
