<?xml version="1.0" encoding="utf-8"?>
<!-- Generator: Adobe Illustrator 17.1.0, SVG Export Plug-In . SVG Version: 6.00 Build 0)  -->
<!DOCTYPE svg PUBLIC "-//W3C//DTD SVG 1.1//EN" "http://www.w3.org/Graphics/SVG/1.1/DTD/svg11.dtd">
<svg version="1.1" id="Layer_1" xmlns="http://www.w3.org/2000/svg" xmlns:xlink="http://www.w3.org/1999/xlink" x="0px" y="0px"
	 viewBox="0 0 1315.056 223.439" enable-background="new 0 0 1315.056 223.439" xml:space="preserve">
<g>
	<path fill="none" stroke="#FFFFFF" stroke-width="17" stroke-linejoin="round" d="M565.803,171.521
		c0.207-11.393,2.207-25.393,13.207-30.393c19-9,43-7,59-23c8-9,12-21,12.858-32.896"/>
	
		<circle fill="none" stroke="#FFFFFF" stroke-width="10" stroke-linecap="round" stroke-linejoin="round" cx="652.058" cy="62.324" r="21.91"/>
	
		<line fill="none" stroke="#FFFFFF" stroke-width="17" stroke-linejoin="round" x1="565.266" y1="48.827" x2="565.266" y2="176.126"/>
	
		<circle fill="none" stroke="#FFFFFF" stroke-width="10" stroke-linecap="round" stroke-linejoin="round" cx="565.266" cy="26.916" r="21.91"/>
	
		<circle fill="none" stroke="#FFFFFF" stroke-width="10" stroke-linecap="round" stroke-linejoin="round" cx="565.266" cy="196.523" r="21.91"/>
	
		<line fill="none" stroke="#FFFFFF" stroke-width="7" stroke-linecap="round" stroke-linejoin="round" x1="87.306" y1="170.525" x2="146.479" y2="68.035"/>
	<polyline fill="none" stroke="#FFFFFF" stroke-width="7" stroke-linecap="round" stroke-linejoin="round" points="146.674,88.627 
		199.766,119.28 146.674,149.932 	"/>
	<polyline fill="none" stroke="#FFFFFF" stroke-width="7" stroke-linecap="round" stroke-linejoin="round" points="87.11,88.627 
		34.018,119.28 87.11,149.932 	"/>
	<path fill="#FBF9FB" d="M212.53,5.008H21.25C9.52,5.008,0,14.518,0,26.258v170.92c0,11.74,9.52,21.25,21.25,21.25h191.28
		c11.74,0,21.25-9.51,21.25-21.25V26.258C233.78,14.518,224.27,5.008,212.53,5.008z M49.64,22.468c1.21-3.07,4.69-4.58,7.76-3.37
		c3.08,1.21,4.59,4.69,3.38,7.76c-1.21,3.08-4.69,4.59-7.76,3.37C49.94,29.018,48.43,25.548,49.64,22.468z M35.47,22.468
		c1.21-3.07,4.69-4.58,7.76-3.37c3.08,1.21,4.59,4.69,3.38,7.76c-1.21,3.08-4.69,4.59-7.76,3.37
		C35.77,29.018,34.26,25.548,35.47,22.468z M21.3,22.468c1.21-3.07,4.69-4.58,7.76-3.37c3.08,1.21,4.59,4.69,3.38,7.76
		c-1.21,3.08-4.69,4.59-7.76,3.37C21.6,29.018,20.09,25.548,21.3,22.468z M212.53,191.868c0,2.93-2.38,5.31-5.31,5.31H26.57
		c-2.94,0-5.32-2.38-5.32-5.31V46.698c0-2.94,2.38-5.32,5.32-5.32h180.65c2.93,0,5.31,2.38,5.31,5.32V191.868z"/>
	<path fill="#FFFFFF" d="M857.621,100.644c-31.88,0-63.759,0-95.639,0c-2.935,0-5.313-2.379-5.313-5.313c0-3.543,0-7.084,0-10.626
		c0-2.935,2.379-5.313,5.313-5.313c31.879,0,63.759,0,95.639,0c2.934,0,5.313,2.379,5.313,5.313c0,3.542,0,7.084,0,10.626
		C862.934,98.265,860.555,100.644,857.621,100.644z"/>
	<path fill="#FFFFFF" d="M756.669,127.211c0,3.542,0,7.084,0,10.627c0,2.935,2.379,5.313,5.313,5.313c31.879,0,63.759,0,95.639,0
		c2.934,0,5.313-2.379,5.313-5.313c0-3.542,0-7.085,0-10.627c0-2.935-2.379-5.313-5.313-5.313c-31.88,0-63.759,0-95.639,0
		C759.048,121.897,756.669,124.276,756.669,127.211z"/>
	<path fill="#FFFFFF" d="M371.928,63.9c0,12.397,0,24.795,0,37.193c-12.397,0-24.796,0-37.193,0c-2.935,0-5.314,2.379-5.314,5.313
		c0,3.543,0,7.085,0,10.627c0,2.934,2.379,5.313,5.314,5.313c12.397,0,24.795,0,37.193,0c0,12.397,0,24.795,0,37.193
		c0,2.934,2.379,5.313,5.313,5.313c3.543,0,7.085,0,10.627,0c2.934,0,5.313-2.378,5.313-5.313c0-12.398,0-24.796,0-37.193
		c12.397,0,24.795,0,37.193,0c2.935,0,5.313-2.379,5.313-5.313c0-3.542,0-7.084,0-10.627c0-2.934-2.379-5.313-5.313-5.313
		c-12.397,0-24.796,0-37.193,0c0-12.398,0-24.796,0-37.193c0-2.935-2.379-5.314-5.313-5.314c-3.543,0-7.085,0-10.627,0
		C374.307,58.586,371.928,60.965,371.928,63.9z"/>
	<g>
		<g>
			<path fill="#FFFFFF" d="M954.035,198.189c0,0-1.098-0.484-3.158-1.39c-0.51-0.197-1.094-0.542-1.733-0.925
				c-0.642-0.381-1.343-0.796-2.102-1.245c-0.189-0.114-0.383-0.23-0.581-0.348c-0.182-0.13-0.365-0.264-0.553-0.398
				c-0.372-0.273-0.758-0.558-1.157-0.849c-0.395-0.297-0.803-0.605-1.224-0.921c-0.21-0.161-0.422-0.323-0.638-0.487
				c-0.199-0.181-0.403-0.366-0.609-0.553c-0.824-0.755-1.693-1.55-2.604-2.383c-0.836-0.907-1.683-1.888-2.581-2.905
				c-0.87-1.037-1.647-2.219-2.523-3.401c-0.455-0.582-0.799-1.248-1.193-1.901c-0.389-0.658-0.775-1.332-1.162-2.022l-0.292-0.52
				l-0.246-0.547c-0.163-0.368-0.328-0.739-0.495-1.112c-0.331-0.75-0.667-1.511-1.007-2.284c-0.274-0.764-0.553-1.539-0.835-2.327
				c-0.256-0.846-0.522-1.753-0.765-2.643c-0.874-3.477-1.334-7.268-1.274-11.195c0.032-3.933,0.664-7.972,1.673-12.002
				c1.071-4.009,2.521-8.022,4.363-11.921c3.644-7.831,8.517-15.354,13.814-22.733c0.664-0.918,1.333-1.84,2.003-2.764l1.013-1.38
				l0.509-0.689l0.326-0.433l0.263-0.336c1.402-1.793,2.813-3.599,4.233-5.415l1.066-1.365c0.367-0.455,0.779-0.905,1.167-1.36
				c0.789-0.907,1.58-1.815,2.372-2.727c1.587-1.821,3.156-3.686,4.874-5.362c1.689-1.717,3.361-3.467,5.085-5.171
				c1.785-1.641,3.576-3.286,5.37-4.936l1.346-1.236l1.408-1.169l2.828-2.332l2.83-2.329c0.947-0.772,1.959-1.465,2.935-2.201
				c1.982-1.434,3.914-2.937,5.934-4.311c2.045-1.339,4.087-2.676,6.125-4.01c1.005-0.689,2.064-1.29,3.121-1.893
				c1.055-0.604,2.108-1.207,3.16-1.809c1.052-0.601,2.103-1.202,3.152-1.801c1.081-0.548,2.16-1.096,3.238-1.643
				c2.108-1.055,4.148-2.14,6.399-3.095c1.1-0.492,2.197-0.982,3.292-1.471c1.093-0.494,2.184-0.983,3.285-1.391
				c2.197-0.851,4.37-1.722,6.544-2.539c2.2-0.743,4.385-1.481,6.552-2.213c8.731-2.727,17.367-4.66,25.62-6.002
				c8.264-1.333,16.163-1.847,23.439-2.089c1.822,0.003,3.605,0.004,5.348,0.007c0.87,0.002,1.731,0.002,2.581,0.004
				c0.85,0.04,1.689,0.079,2.518,0.116c1.656,0.08,3.27,0.16,4.838,0.236c1.568,0.08,3.083,0.28,4.555,0.407
				c1.47,0.143,2.892,0.281,4.265,0.416c1.364,0.196,2.681,0.387,3.945,0.569c1.264,0.183,2.476,0.357,3.634,0.526
				c1.156,0.176,2.247,0.428,3.287,0.623c2.076,0.42,3.936,0.758,5.539,1.118c1.595,0.396,2.953,0.733,4.053,1.005
				c2.198,0.545,3.369,0.837,3.369,0.837c0.932,0.232,1.499,1.174,1.268,2.104c-0.223,0.899-1.111,1.459-2.011,1.288l-0.088-0.017
				c0,0-1.162-0.225-3.339-0.645c-1.087-0.21-2.429-0.469-4.006-0.775c-1.582-0.268-3.417-0.502-5.459-0.806
				c-1.023-0.139-2.095-0.322-3.229-0.448c-1.136-0.115-2.323-0.234-3.562-0.358c-1.238-0.125-2.525-0.254-3.861-0.388
				c-1.34-0.072-2.729-0.147-4.165-0.224c-1.434-0.061-2.911-0.193-4.437-0.204c-1.526-0.015-3.094-0.031-4.704-0.046
				c-0.805-0.009-1.619-0.018-2.444-0.027c-0.824,0.03-1.659,0.058-2.504,0.087c-1.687,0.058-3.414,0.118-5.177,0.179
				c-1.759,0.139-3.554,0.281-5.383,0.425c-0.914,0.077-1.837,0.153-2.767,0.23c-0.926,0.117-1.861,0.235-2.804,0.354
				c-1.883,0.26-3.807,0.429-5.743,0.751c-1.933,0.326-3.895,0.657-5.885,0.992c-7.924,1.513-16.173,3.631-24.49,6.45
				c-2.064,0.744-4.146,1.495-6.242,2.25c-2.068,0.827-4.134,1.706-6.22,2.563c-1.056,0.414-2.066,0.894-3.077,1.375
				c-1.015,0.478-2.032,0.956-3.052,1.435c-2.03,0.899-4.11,2.055-6.188,3.149c-8.041,4.389-16.023,9.327-23.352,15.113
				c-0.923,0.713-1.88,1.383-2.775,2.133l-2.672,2.259l-2.67,2.255l-1.33,1.13l-1.27,1.197c-1.692,1.593-3.382,3.184-5.065,4.769
				c-1.623,1.647-3.195,3.336-4.786,4.991l-1.188,1.244c-0.406,0.408-0.792,0.827-1.15,1.26c-0.738,0.854-1.475,1.707-2.209,2.558
				c-0.736,0.849-1.469,1.697-2.201,2.542c-0.364,0.428-0.735,0.831-1.093,1.278l-1.062,1.37c-1.412,1.822-2.816,3.634-4.21,5.433
				l-0.262,0.337l-0.185,0.249l-0.499,0.682l-0.99,1.36c-0.65,0.907-1.3,1.809-1.946,2.708c-5.122,7.19-9.659,14.313-12.923,21.409
				c-1.645,3.54-2.957,7.056-3.923,10.503c-0.931,3.447-1.537,6.824-1.696,10.063c-0.343,6.471,0.888,12.415,3.056,17.29
				c2.109,4.902,4.859,8.843,7.517,11.715c0.16,0.188,0.317,0.374,0.471,0.556c0.171,0.167,0.339,0.331,0.505,0.492
				c0.333,0.324,0.659,0.637,0.973,0.941c0.635,0.59,1.189,1.258,1.779,1.688c0.577,0.476,1.111,0.917,1.601,1.32
				c0.49,0.406,0.922,0.792,1.418,1.097c1.859,1.268,2.85,1.944,2.85,1.944c0.796,0.544,1.002,1.63,0.46,2.425
				C955.699,198.281,954.791,198.522,954.035,198.189z"/>
			<path fill="#FFFFFF" d="M1251.555,109.359c-0.944-6.902-7.141-10.906-13.696-8.119c-5.756,2.45-9.279,9.155-8.445,15.26
				c0.943,6.903,7.142,10.906,13.696,8.119C1248.867,122.171,1252.388,115.463,1251.555,109.359z M1242.271,109.207
				c-1.562,0.37-3.129-0.596-3.499-2.159c-0.37-1.563,0.597-3.129,2.16-3.5c1.562-0.37,3.128,0.596,3.499,2.159
				C1244.8,107.271,1243.833,108.837,1242.271,109.207z"/>
			<path fill="#FFFFFF" d="M1140.112,56.801c0,0,0.339-1.234,0.977-3.547c0.3-1.133,0.798-2.609,1.417-4.326
				c0.583-1.747,1.371-3.636,2.271-5.771c0.948-2.106,2.001-4.448,3.347-6.892c1.292-2.475,2.839-5.066,4.586-7.772
				c0.447-0.668,0.902-1.345,1.362-2.033l0.348-0.519l0.426-0.595c0.239-0.33,0.478-0.663,0.721-0.998
				c1.012-1.347,1.878-2.649,3.245-4.179c2.385-3.056,5.683-5.891,9.228-8.117c0.404-0.256,0.81-0.513,1.219-0.772
				c0.379-0.257,0.924-0.526,1.384-0.788c0.957-0.511,1.943-1.096,2.907-1.548c0.968-0.454,1.944-0.911,2.929-1.372
				c1.014-0.406,2.038-0.814,3.07-1.228l0.389-0.153l0.507-0.17l0.74-0.242c0.493-0.162,0.991-0.323,1.489-0.487
				c0.465-0.167,1.071-0.316,1.651-0.468c0.581-0.149,1.166-0.299,1.751-0.449c1.175-0.3,2.289-0.459,3.449-0.694
				c1.15-0.205,2.3-0.324,3.463-0.488l0.218-0.028l0.108-0.015l0.214-0.02l0.411-0.035l0.822-0.07
				c0.55-0.046,1.102-0.093,1.656-0.139c1.18-0.065,2.467-0.084,3.708-0.12c1.238,0.009,2.458,0.086,3.698,0.131
				c1.236,0.071,2.469,0.263,3.714,0.396l0.466,0.055l0.233,0.028l0.117,0.015c0.113,0.019-0.087-0.02,0.282,0.044l0.851,0.167
				c0.568,0.112,1.138,0.225,1.708,0.336c0.581,0.124,1.119,0.2,1.74,0.362c0.629,0.172,1.258,0.343,1.89,0.516
				c2.591,0.633,4.898,1.574,7.313,2.439c1.16,0.52,2.326,1.044,3.495,1.569l0.876,0.397l0.439,0.199l0.22,0.1l0.331,0.174
				l1.599,0.866c1.071,0.586,2.134,1.144,3.221,1.759c1.11,0.691,2.223,1.384,3.339,2.079l1.673,1.049l1.579,1.107
				c1.05,0.742,2.104,1.485,3.159,2.231c1.046,0.758,2.039,1.586,3.065,2.38l1.529,1.206l0.849,0.676l0.708,0.621
				c1.89,1.68,3.781,3.229,5.699,5.162l2.861,2.786l2.686,2.862c1.832,1.881,3.47,3.909,5.194,5.878l0.639,0.744l0.202,0.242
				l0.148,0.186l0.299,0.373l1.194,1.494l2.39,2.989c1.573,2.083,3.167,4.193,4.69,6.306c1.471,2.136,3.005,4.224,4.417,6.393
				l2.131,3.241l0.531,0.809l0.297,0.461l0.25,0.405l0.994,1.617c0.661,1.079,1.322,2.157,1.981,3.233
				c0.645,1.139,1.289,2.275,1.931,3.41l0.96,1.701l0.889,1.718c0.587,1.147,1.173,2.291,1.757,3.433
				c0.557,1.156,1.074,2.33,1.61,3.489l0.795,1.74l0.099,0.217l0.126,0.295l0.173,0.429l0.345,0.856
				c0.461,1.141,0.92,2.279,1.38,3.414c0.451,1.151,0.866,2.384,1.296,3.566c0.897,2.388,1.579,4.75,2.327,7.094
				c0.365,1.173,0.658,2.366,0.988,3.54l0.479,1.761l0.139,0.523l0.099,0.431l0.196,0.86c0.262,1.146,0.522,2.286,0.782,3.421
				c0.215,1.226,0.429,2.447,0.642,3.661c0.248,1.206,0.312,2.44,0.453,3.653c0.061,0.606,0.122,1.212,0.184,1.816
				c0.008,0.625,0.018,1.248,0.025,1.869c0.005,0.621,0.009,1.241,0.015,1.859l0.002,0.462l-0.037,0.537l-0.065,0.833
				c-0.023,0.502-0.137,1.237-0.227,1.885c-0.082,0.679-0.227,1.285-0.358,1.906c-0.549,2.475-1.469,4.869-2.675,7.012
				c-0.283,0.549-0.631,1.046-0.943,1.565l-0.12,0.193l-0.061,0.096l-0.119,0.176l-0.229,0.321l-0.458,0.642
				c-0.135,0.2-0.339,0.455-0.538,0.703l-0.592,0.736c-0.396,0.5-0.794,0.893-1.191,1.338c-1.613,1.706-3.399,3.18-5.27,4.418
				c-0.472,0.304-0.93,0.626-1.417,0.889l-0.72,0.41l-0.359,0.203l-0.179,0.102l-0.259,0.131c-0.439,0.215-0.875,0.429-1.31,0.641
				c-0.446,0.214-1.007,0.438-1.503,0.65c-2.017,0.827-3.903,1.421-5.8,1.908c-0.942,0.255-1.871,0.471-2.788,0.66
				c-0.918,0.212-1.819,0.368-2.71,0.533c-0.893,0.175-1.767,0.298-2.631,0.438l-0.646,0.102l-0.405,0.061l-0.313,0.038
				c-0.416,0.051-0.829,0.099-1.239,0.148c-1.647,0.188-3.221,0.402-4.792,0.553c-1.603,0.107-3.154,0.21-4.651,0.311
				c-1.496,0.094-2.949,0.216-4.302,0.214c-2.726,0.047-5.23,0.089-7.492,0.127c-4.51-0.014-8.033-0.139-10.443-0.17
				c-2.408-0.048-3.692-0.074-3.692-0.074c-1.602-0.032-2.875-1.356-2.843-2.96c0.031-1.576,1.312-2.833,2.878-2.844l0.084-0.001
				c0,0,1.267-0.008,3.643-0.023c2.374-0.032,5.867,0,10.286-0.102c2.202-0.089,4.64-0.186,7.294-0.294
				c1.339-0.023,2.677-0.167,4.078-0.283c1.4-0.118,2.85-0.241,4.348-0.367c1.523-0.178,3.125-0.425,4.758-0.644
				c0.409-0.058,0.821-0.114,1.236-0.171l0.312-0.043c0.045-0.006-0.109,0.015-0.008-0.001l0.076-0.013l0.15-0.027l0.607-0.107
				c0.809-0.147,1.639-0.278,2.456-0.458c0.82-0.17,1.657-0.33,2.479-0.538c0.833-0.189,1.662-0.399,2.483-0.64
				c1.645-0.451,3.324-1.033,4.837-1.687c0.379-0.175,0.715-0.299,1.138-0.511c0.43-0.221,0.862-0.443,1.296-0.665
				c0.345-0.204,0.69-0.409,1.038-0.615c0.38-0.209,0.724-0.472,1.087-0.712c1.426-0.989,2.766-2.141,3.963-3.456
				c0.28-0.332,0.618-0.673,0.856-0.999l0.38-0.489c0.127-0.16,0.253-0.311,0.408-0.55l0.444-0.65l0.223-0.326
				c-0.01,0.014,0.101-0.148-0.008,0.011l0.042-0.073l0.086-0.146c0.219-0.392,0.483-0.77,0.676-1.175
				c0.844-1.592,1.47-3.283,1.852-5.093c0.088-0.453,0.199-0.919,0.236-1.339c0.052-0.446,0.133-0.804,0.159-1.413l0.054-0.833
				l0.015-0.21l0.006-0.104c0.007-0.139-0.001,0.07-0.002,0.015l-0.01-0.375c-0.012-0.5-0.024-1.002-0.037-1.507
				c-0.009-0.502-0.02-1.008-0.03-1.515c-0.06-0.521-0.122-1.045-0.183-1.568c-0.138-1.046-0.194-2.107-0.428-3.156
				c-0.195-1.052-0.391-2.109-0.587-3.174c-0.273-1.131-0.547-2.268-0.822-3.408l-0.206-0.858l-0.104-0.43
				c-0.012-0.055,0.021,0.09-0.008-0.021l-0.029-0.103l-0.059-0.207l-0.474-1.657c-0.327-1.105-0.613-2.226-0.973-3.332
				c-0.733-2.204-1.417-4.473-2.26-6.623c-0.415-1.096-0.783-2.173-1.238-3.294c-0.471-1.128-0.944-2.261-1.42-3.396l-0.355-0.853
				l-0.179-0.427l-0.044-0.106c0.05,0.123-0.015-0.023-0.015-0.023l-0.096-0.203l-0.767-1.624c-0.517-1.082-1.013-2.176-1.548-3.255
				c-0.563-1.068-1.128-2.139-1.695-3.211l-0.854-1.607l-0.911-1.564c-0.606-1.046-1.214-2.091-1.823-3.14
				c-0.671-1.066-1.343-2.134-2.015-3.203l-1.013-1.607l-0.253-0.401l-0.091-0.14l-0.13-0.194l-0.521-0.773l-2.092-3.099
				c-1.385-2.076-2.895-4.077-4.339-6.122l-4.49-5.939l-2.401-2.98l-1.202-1.49l-0.3-0.372l-0.15-0.187
				c-0.065-0.081,0.005,0.004-0.031-0.037l-0.076-0.087l-0.611-0.704c-1.642-1.859-3.213-3.794-4.941-5.547l-2.535-2.684
				l-2.592-2.504c-1.642-1.667-3.656-3.319-5.527-4.968l-0.71-0.618c0.138,0.116-0.014-0.007-0.005,0l-0.09-0.069l-0.178-0.14
				l-0.356-0.278l-1.426-1.113c-0.956-0.732-1.881-1.503-2.854-2.2c-0.981-0.687-1.96-1.371-2.935-2.054l-1.461-1.019l-1.464-0.906
				c-0.973-0.607-1.943-1.211-2.91-1.813c-1.045-0.587-2.143-1.157-3.206-1.734l-1.602-0.86l-0.101-0.055
				c0.024,0.013-0.196-0.104,0.029,0.015l-0.194-0.087l-0.388-0.172l-0.774-0.345c-1.032-0.46-2.059-0.918-3.083-1.375
				c-2.093-0.731-4.194-1.575-6.181-2.042l-1.5-0.42c-0.509-0.138-1.129-0.228-1.686-0.346c-0.571-0.11-1.141-0.219-1.708-0.329
				l-0.852-0.164c0.299,0.052,0.027,0.008,0.068,0.017l-0.098-0.011l-0.197-0.021l-0.392-0.043c-1.044-0.101-2.079-0.269-3.116-0.32
				c-1.035-0.027-2.077-0.095-3.087-0.099c-1.008,0.041-1.958,0.045-2.997,0.102c-0.553,0.049-1.104,0.098-1.655,0.145l-0.824,0.073
				l-0.411,0.037c0.015-0.001-0.179,0.017,0.009-0.001l-0.094,0.013l-0.19,0.027c-1.007,0.15-2.025,0.256-3.002,0.434
				c-0.957,0.203-1.973,0.35-2.861,0.585c-0.445,0.115-0.89,0.23-1.331,0.344c-0.443,0.114-0.865,0.205-1.388,0.392
				c-0.498,0.166-0.994,0.33-1.488,0.493l-0.738,0.245l-0.184,0.062l-0.092,0.03c-0.153,0.053,0.104-0.038,0.048-0.016l-0.331,0.134
				c-0.882,0.356-1.757,0.709-2.624,1.06c-0.85,0.404-1.691,0.802-2.525,1.198c-0.837,0.393-1.542,0.834-2.311,1.236
				c-0.387,0.224-0.728,0.365-1.149,0.651c-0.407,0.26-0.812,0.519-1.215,0.776c-0.403,0.258-0.804,0.515-1.203,0.77l-0.149,0.096
				c-0.145,0.095,0.111-0.076,0.064-0.04l-0.061,0.047l-0.244,0.189l-0.486,0.374c-0.324,0.247-0.646,0.492-0.966,0.737
				l-0.482,0.363l-0.434,0.406c-0.58,0.539-1.154,1.073-1.72,1.599c-0.534,0.57-1.033,1.17-1.546,1.739
				c-1.005,1.037-2.054,2.553-3.058,3.822c-0.255,0.325-0.507,0.648-0.758,0.969l-0.297,0.382l-0.343,0.473
				c-0.455,0.627-0.905,1.245-1.347,1.854c-0.837,1.243-1.693,2.42-2.442,3.602c-0.772,1.169-1.529,2.289-2.189,3.406
				c-0.679,1.106-1.335,2.166-1.914,3.204c-0.585,1.036-1.183,2.005-1.684,2.959c-0.985,1.914-1.95,3.607-2.627,5.094
				c-0.714,1.486-1.373,2.725-1.833,3.862c-0.986,2.187-1.513,3.354-1.513,3.354c-0.662,1.466-2.386,2.118-3.851,1.457
				C1140.396,59.63,1139.736,58.161,1140.112,56.801z"/>
			<path fill="#FFFFFF" d="M1232.166,131.551c0,0,0.489,0.254,1.405,0.73c0.115,0.06,0.236,0.123,0.363,0.189
				c0.125,0.063,0.275,0.153,0.373,0.169c0.219,0.07,0.457,0.148,0.715,0.23c0.268,0.079,0.509,0.21,0.848,0.283
				c0.348,0.068,0.718,0.14,1.109,0.217c1.568,0.238,3.579,0.351,5.871-0.211c0.57-0.131,1.15-0.335,1.755-0.502
				c0.603-0.183,1.191-0.478,1.821-0.712l0.235-0.094l0.03-0.011c0.03-0.014-0.167,0.088-0.068,0.036l0.063-0.033l0.126-0.065
				l0.511-0.267c0.343-0.178,0.689-0.357,1.041-0.54c0.641-0.369,1.171-0.744,1.795-1.12c2.466-1.732,4.868-4.102,6.879-7.022
				c0.272-0.351,0.477-0.75,0.721-1.127l0.355-0.575l0.179-0.29c0.036-0.066-0.023,0.05-0.009,0.022l0.021-0.04l0.042-0.081
				l0.085-0.161c0.451-0.86,0.938-1.748,1.26-2.554c0.388-0.806,0.691-1.711,1.019-2.608c0.169-0.449,0.27-0.916,0.411-1.378
				c0.131-0.463,0.277-0.928,0.36-1.405c0.457-1.894,0.594-3.871,0.623-5.855c-0.021-0.496-0.043-0.994-0.064-1.493l-0.008-0.187
				l-0.004-0.094l-0.001-0.048c-0.009-0.083,0.01,0.061,0.004,0.027l-0.053-0.398l-0.112-0.798c-0.072-0.537-0.143-1.078-0.274-1.52
				l-0.341-1.409c-0.587-1.914-1.442-3.739-2.586-5.359c-1.193-1.586-2.687-2.892-4.357-3.937l-1.376-0.663
				c-0.241-0.102-0.515-0.277-0.727-0.317l-0.661-0.19c-0.453-0.111-0.839-0.312-1.348-0.354l-1.446-0.23
				c-1.955-0.14-3.931,0.061-5.833,0.587c-0.932,0.339-1.882,0.593-2.759,1.054l-0.669,0.311l-0.335,0.156
				c-0.03,0.014,0.12-0.064,0.035-0.018l-0.043,0.024l-0.086,0.05l-0.174,0.101l-1.382,0.805c-0.448,0.269-0.778,0.549-1.172,0.817
				l-0.568,0.402l-0.559,0.467c-0.37,0.313-0.738,0.625-1.105,0.936c-0.343,0.339-0.686,0.678-1.027,1.014
				c-1.328,1.379-2.516,2.86-3.494,4.429c-0.522,0.762-0.941,1.576-1.377,2.363l-0.126,0.228l-0.153,0.329l-0.304,0.654
				c-0.186,0.424-0.441,0.892-0.563,1.269c-0.292,0.793-0.611,1.54-0.838,2.374c-0.121,0.407-0.256,0.806-0.362,1.208
				c-0.095,0.406-0.187,0.808-0.278,1.206c-0.219,0.791-0.288,1.592-0.431,2.363c-0.111,0.776-0.14,1.543-0.217,2.289
				c0.007,0.746-0.023,1.478,0.006,2.187c0.028,0.353,0.055,0.702,0.083,1.047l0.039,0.513l0.009,0.128l0.004,0.064
				c0.015,0.12-0.017-0.129-0.012-0.089l0.007,0.034l0.045,0.279c0.061,0.372,0.121,0.738,0.181,1.1
				c0.064,0.35,0.107,0.756,0.198,1.006c0.17,0.566,0.283,1.109,0.463,1.649c0.704,2.244,1.804,3.91,2.75,5.176
				c0.252,0.305,0.493,0.594,0.718,0.866c0.23,0.269,0.491,0.468,0.705,0.686c0.22,0.213,0.422,0.409,0.609,0.59
				c0.184,0.184,0.398,0.292,0.564,0.421c0.685,0.494,1.051,0.759,1.051,0.759L1232.166,131.551z M1229.454,136.594
				c0,0-0.542-0.36-1.559-1.034c-0.247-0.179-0.552-0.345-0.83-0.594c-0.28-0.25-0.586-0.522-0.918-0.817
				c-0.319-0.305-0.706-0.597-1.03-0.985c-0.321-0.39-0.662-0.805-1.022-1.242c-1.369-1.784-2.752-4.194-3.541-7.128
				c-0.216-0.741-0.369-1.562-0.55-2.377c-0.106-0.437-0.12-0.756-0.173-1.13c-0.045-0.364-0.091-0.733-0.138-1.106l-0.035-0.281
				l-0.004-0.036c0.002,0.016-0.03-0.256-0.017-0.161l-0.003-0.078l-0.007-0.158l-0.025-0.634c-0.016-0.427-0.032-0.857-0.048-1.293
				c-0.001-0.87,0.065-1.757,0.101-2.661c0.119-0.895,0.201-1.815,0.367-2.734c0.199-0.912,0.333-1.858,0.62-2.779
				c0.132-0.464,0.265-0.932,0.399-1.402c0.148-0.466,0.328-0.925,0.493-1.393c0.307-0.928,0.756-1.886,1.181-2.846
				c0.212-0.51,0.441-0.868,0.663-1.311l0.336-0.639l0.17-0.321l0.058-0.11l0.026-0.041l0.051-0.084l0.103-0.166
				c0.546-0.888,1.081-1.796,1.725-2.648c1.216-1.747,2.673-3.377,4.275-4.902c0.41-0.373,0.823-0.746,1.235-1.121
				c0.432-0.355,0.883-0.693,1.328-1.04c0.225-0.172,0.441-0.347,0.675-0.515l0.742-0.484c0.49-0.309,1.007-0.671,1.48-0.93
				c0.469-0.248,0.941-0.498,1.413-0.748l0.435-0.227l0.402-0.169l0.807-0.336c1.056-0.492,2.211-0.772,3.335-1.116
				c2.31-0.528,4.727-0.728,7.149-0.495c1.202,0.216,2.394,0.371,3.625,0.855l0.91,0.315c0.324,0.1,0.513,0.241,0.776,0.36
				l1.588,0.796c2.069,1.296,3.906,2.947,5.339,4.895c1.368,1.982,2.413,4.135,3.106,6.369c0.283,1.136,0.635,2.382,0.739,3.397
				l0.119,0.796l0.061,0.398l0.015,0.127l0.004,0.053l0.007,0.106l0.015,0.213c0.038,0.568,0.076,1.136,0.114,1.7
				c0.034,2.259-0.102,4.497-0.533,6.643c-0.407,2.162-0.958,4.204-1.773,6.218c-0.388,1.054-0.816,1.908-1.228,2.79l-0.078,0.165
				l-0.039,0.082l-0.073,0.143l-0.186,0.337l-0.373,0.67c-0.258,0.439-0.477,0.901-0.764,1.315c-2.134,3.416-4.715,6.329-7.547,8.55
				c-0.755,0.536-1.533,1.114-2.242,1.567c-0.341,0.202-0.677,0.4-1.008,0.598l-0.496,0.294l-0.122,0.073l-0.061,0.037l-0.166,0.086
				l-0.284,0.135c-0.759,0.346-1.481,0.726-2.229,0.998c-0.755,0.255-1.48,0.537-2.207,0.739c-2.912,0.852-5.685,0.882-7.911,0.633
				c-0.559-0.085-1.089-0.167-1.588-0.243c-0.502-0.088-1.008-0.276-1.459-0.404c-0.455-0.146-0.876-0.28-1.262-0.404
				c-0.384-0.129-0.576-0.254-0.832-0.36c-0.938-0.435-1.436-0.667-1.436-0.667L1229.454,136.594z"/>
		</g>
		<g>
			<path fill="#FFFFFF" d="M1007.111,201.688c-2.032,2.854-4.877,5.076-8.02,6.619c-2.638,1.203-5.44,2.065-8.319,2.447
				c-0.68,0.091-1.36,0.149-2.049,0.175c-1.783,0.074-3.583-0.091-5.333-0.448c-4.537-0.946-8.775-3.26-12.06-6.536
				c-1.684-1.675-3.111-3.6-4.238-5.69c-1.17-2.181-2.007-4.536-2.497-6.967c-0.497-2.455-0.639-4.977-0.414-7.473
				c0.199-2.14,0.671-4.264,1.427-6.279c1.451-3.857,3.956-7.332,7.157-9.937c3.244-2.637,7.2-4.371,11.33-5.018
				c2.049-0.282,4.13-0.373,6.196-0.241c1.965,0.141,3.914,0.481,5.789,1.07c1.858,0.581,3.641,1.401,5.284,2.43
				c1.716,1.069,3.284,2.372,4.677,3.84c0.622,0.705,0.97,1.692,0.837,2.605c-0.116,0.805-0.597,1.551-1.243,2.073
				c-0.639,0.531-1.436,0.838-2.248,0.838c-0.904,0.008-1.808-0.373-2.43-1.029c-1.053-1.12-2.232-2.123-3.55-2.911
				c-1.178-0.713-2.463-1.252-3.791-1.608c-1.335-0.357-2.704-0.531-4.081-0.573c-1.467-0.049-2.943,0.042-4.403,0.207
				c-1.974,0.307-3.915,0.88-5.699,1.783c-1.675,0.855-3.218,1.999-4.454,3.409c-1.277,1.459-2.23,3.193-2.861,5.026
				c-0.738,2.124-1.053,4.372-1.036,6.619c0.033,2.446,0.456,4.893,1.369,7.149c0.854,2.123,2.14,4.081,3.732,5.723
				c1.551,1.6,3.393,2.903,5.441,3.79c2.065,0.895,4.329,1.377,6.577,1.369c2.696-0.017,5.367-0.722,7.78-1.958
				c2.106-1.087,4.014-2.579,5.465-4.446c0.515-0.755,1.385-1.244,2.281-1.335c0.821-0.083,1.659,0.157,2.363,0.622
				c0.713,0.465,1.293,1.154,1.518,1.941C1007.858,199.872,1007.658,200.909,1007.111,201.688z"/>
			<path fill="#FFFFFF" d="M1271.911,189.811c-0.315-3.956-1.725-7.846-4.163-10.972c-1.186-1.535-2.629-2.878-4.238-3.981
				c-1.668-1.145-3.525-2.024-5.466-2.546c-1.783-0.481-3.641-0.671-5.499-0.68c-1.908,0-3.807,0.183-5.64,0.68
				c-1.95,0.531-3.815,1.41-5.483,2.564c-1.592,1.103-3.011,2.455-4.188,3.989c-1.178,1.551-2.115,3.285-2.804,5.11
				c-0.705,1.874-1.144,3.848-1.318,5.839c-0.108,2.612,0.157,5.25,0.937,7.738c0.754,2.38,1.974,4.628,3.591,6.544
				c1.8,2.131,4.072,3.849,6.609,4.984c2.597,1.17,5.45,1.725,8.295,1.725c2.835,0,5.681-0.564,8.269-1.725
				c2.545-1.136,4.843-2.854,6.635-4.993c1.609-1.908,2.812-4.155,3.559-6.544C1271.778,195.054,1272.052,192.416,1271.911,189.811z
				 M1264.164,195.858c-0.48,1.41-1.203,2.736-2.147,3.881c-1.759,2.015-4.181,3.45-6.793,4.039
				c-1.327,0.299-2.695,0.373-4.048,0.232c-1.318-0.141-2.629-0.489-3.831-1.045c-1.211-0.556-2.314-1.311-3.276-2.23
				c-0.465-0.44-0.888-0.92-1.286-1.436c-0.34-0.448-0.655-0.928-0.929-1.427c-1.111-1.974-1.592-4.246-1.601-6.51
				c-0.008-2.148,0.407-4.288,1.311-6.229c0.837-1.809,2.099-3.434,3.715-4.595c0.821-0.589,1.734-1.053,2.688-1.393
				c0.456-0.166,0.921-0.307,1.385-0.414c0.423-0.1,0.846-0.183,1.278-0.241c0.929-0.125,1.866-0.158,2.803-0.091
				c0.914,0.058,1.817,0.207,2.704,0.431c1.335,0.34,2.604,0.929,3.715,1.725c1.087,0.78,2.024,1.758,2.762,2.861
				c0.763,1.144,1.328,2.413,1.701,3.732c0.416,1.419,0.614,2.887,0.597,4.355C1264.895,192.988,1264.646,194.456,1264.164,195.858z
				"/>
			<path fill="#FFFFFF" d="M1182.95,164.589v42.499c0,1.883-1.609,3.359-3.5,3.359c-1.999,0-3.575-1.508-3.575-3.359v-42.499
				c0-1.85,1.576-3.367,3.575-3.367C1181.341,161.223,1182.95,162.708,1182.95,164.589z"/>
			<path fill="#FFFFFF" d="M1228.144,190.999c-0.042-2.215-0.374-4.43-1.054-6.537c-0.63-1.94-1.559-3.79-2.779-5.423
				c-1.194-1.602-2.671-2.995-4.33-4.097c-1.733-1.162-3.674-2.007-5.689-2.555c-1.833-0.497-3.741-0.746-5.64-0.746
				c-1.867,0-3.733,0.232-5.532,0.738c-1.65,0.456-3.243,1.153-4.702,2.049c-1.377,0.846-2.646,1.874-3.741,3.06
				c-2.132,2.298-3.641,5.159-4.445,8.203c-0.813,3.06-0.921,6.295-0.332,9.406c0.597,3.185,1.915,6.245,3.881,8.824
				c1.758,2.207,4.139,3.882,6.744,4.985c2.638,1.128,5.508,1.659,8.377,1.692c2.414,0.033,4.827-0.29,7.125-1.028
				c2.272-0.73,4.42-1.874,6.162-3.5c0.557-0.563,1.013-1.26,1.187-2.032c0.149-0.655,0.083-1.377-0.191-1.991
				c-0.356-0.763-1.045-1.368-1.841-1.659c-0.613-0.232-1.294-0.282-1.932-0.157c-0.705,0.132-1.369,0.472-1.899,0.962
				c-1.252,0.954-2.687,1.659-4.197,2.115c-1.493,0.448-3.051,0.646-4.611,0.629c-1.452-0.016-2.902-0.215-4.279-0.671
				c-1.245-0.415-2.43-1.045-3.467-1.857c-1.982-1.551-3.417-3.758-4.047-6.188h26.805c1.626,0,2.862-0.505,3.591-1.359
				C1228.045,192.997,1228.219,191.91,1228.144,190.999z M1196.585,188.99c0.681-4.977,3.616-8.783,8.618-10.094
				c2.007-0.597,4.288-0.664,6.319-0.265c0.258,0.066,0.506,0.132,0.764,0.199c4.827,1.236,8.103,5.01,8.874,10.161H1196.585
				L1196.585,188.99z"/>
			<path fill="#FFFFFF" d="M1169.274,190.999v-0.075c-0.041-2.19-0.373-4.379-1.045-6.461c-0.63-1.94-1.559-3.79-2.778-5.423
				c-1.203-1.601-2.671-2.995-4.33-4.097c-1.742-1.162-3.674-2.007-5.69-2.555c-1.833-0.497-3.741-0.746-5.64-0.746
				c-1.866,0-3.731,0.232-5.532,0.738c-1.65,0.456-3.243,1.153-4.702,2.049c-1.377,0.846-2.646,1.874-3.741,3.06
				c-2.14,2.298-3.641,5.159-4.445,8.203c-0.812,3.06-0.92,6.295-0.332,9.406c0.597,3.185,1.917,6.245,3.882,8.824
				c1.758,2.207,4.138,3.882,6.743,4.985c2.638,1.128,5.507,1.659,8.377,1.692c2.414,0.033,4.827-0.29,7.125-1.028
				c2.264-0.73,4.42-1.874,6.162-3.5c0.557-0.563,1.012-1.26,1.186-2.032c0.149-0.655,0.083-1.377-0.191-1.991
				c-0.356-0.763-1.045-1.368-1.842-1.659c-0.614-0.232-1.293-0.282-1.932-0.157c-0.705,0.132-1.369,0.472-1.9,0.962
				c-1.252,0.954-2.686,1.659-4.196,2.115c-1.492,0.448-3.053,0.646-4.612,0.629c-1.452-0.016-2.902-0.215-4.28-0.671
				c-1.243-0.415-2.43-1.045-3.475-1.857c-1.974-1.551-3.408-3.758-4.04-6.188h26.807c1.626,0,2.853-0.505,3.59-1.359
				C1169.183,192.997,1169.357,191.91,1169.274,190.999z M1137.724,188.99c0.68-4.977,3.607-8.783,8.617-10.094
				c2.007-0.597,4.288-0.664,6.32-0.265c0.249,0.066,0.506,0.132,0.763,0.199c4.828,1.236,8.104,5.01,8.875,10.161H1137.724
				L1137.724,188.99z"/>
			<line fill="none" x1="1168.325" y1="191.009" x2="1168.325" y2="191.081"/>
			<path fill="#FFFFFF" d="M1169.279,191.066c0-0.024-0.001-0.047,0.001-0.071c0-0.024-0.003-0.047-0.005-0.07"/>
			<path fill="#FFFFFF" d="M1123.591,188.177v18.985c0,0.929-0.374,1.891-1.036,2.521c-0.656,0.614-1.593,0.913-2.539,0.913
				c-0.945,0.009-1.907-0.298-2.545-0.929c-0.63-0.63-0.954-1.592-0.954-2.504v-18.761c-0.132-5.582-4.545-9.546-10.027-9.546
				c-6.966,0-12.367,5.035-12.367,12.722v15.585c0,0.929-0.374,1.891-1.036,2.521c-0.656,0.614-1.593,0.913-2.538,0.913
				c-0.937,0-1.875-0.298-2.529-0.913c-0.672-0.629-1.046-1.592-1.046-2.521v-17.567c0-1.384-0.199-2.77-0.629-4.081
				c-0.415-1.244-1.037-2.422-1.883-3.425c-0.415-0.489-0.879-0.929-1.393-1.311c-0.374-0.273-0.764-0.522-1.17-0.73
				c-0.639-0.332-1.319-0.589-2.016-0.771c-0.705-0.183-1.435-0.29-2.165-0.333c-0.656-0.033-1.311-0.024-1.965,0.042
				c-1.178,0.108-2.348,0.382-3.442,0.812c-2.182,0.863-4.114,2.347-5.465,4.263c-0.697,0.996-1.244,2.107-1.601,3.268
				c-0.399,1.252-0.589,2.571-0.589,3.889v15.941c0,0.962-0.432,1.933-1.153,2.555c-0.638,0.548-1.517,0.821-2.388,0.813
				c-0.872,0-1.734-0.282-2.38-0.838c-0.713-0.614-1.154-1.576-1.154-2.53v-31.666c0-1.883,1.576-3.434,3.509-3.434
				c2.015,0,3.425,1.65,3.425,3.434v1.866c3.135-3.607,7.696-5.3,12.366-5.3c5.807,0,11.653,2.621,14.44,8.012
				c1.128-1.941,2.712-3.608,4.553-4.886c1.816-1.252,3.881-2.131,6.029-2.629c3.525-0.812,7.266-0.623,10.683,0.556
				c1.51,0.523,2.953,1.245,4.271,2.148c1.319,0.904,2.513,2.007,3.501,3.26c1.02,1.302,1.825,2.778,2.364,4.345
				C1123.317,184.57,1123.591,186.378,1123.591,188.177z"/>
			<path fill="#FFFFFF" d="M1047.196,173.606c-0.381-0.564-0.937-1.003-1.567-1.261c-0.896-0.374-1.941-0.381-2.836-0.017
				c-0.63,0.257-1.194,0.697-1.552,1.269c-0.355,0.573-0.514,1.27-0.514,1.949c-2.854-2.762-6.843-3.707-10.218-3.765
				c-2.737-0.075-5.466,0.299-7.888,1.36c-1.725,0.663-3.334,1.608-4.761,2.795c-1.401,1.153-2.621,2.538-3.607,4.056
				c-1.991,3.06-3.02,6.693-3.152,10.359c-0.116,3.425,0.547,6.875,2.007,9.969c0.705,1.485,1.592,2.887,2.646,4.147
				c1.078,1.269,2.33,2.389,3.699,3.334c1.576,1.12,3.367,1.899,5.225,2.438c1.8,0.514,3.666,0.805,5.523,0.771
				c1.908-0.025,3.807-0.398,5.582-1.103c1.858-0.738,3.575-1.85,4.935-3.301v0.414c0,0.92,0.314,1.874,0.945,2.522
				c0.639,0.655,1.601,0.987,2.563,0.987c0.953,0,1.898-0.323,2.546-0.97c0.663-0.639,1.028-1.602,1.028-2.538v-31.452
				C1047.801,174.874,1047.585,174.17,1047.196,173.606z M1037.367,201.59c-1.932,1.708-4.595,2.638-7.622,2.638
				c-1.211-0.1-2.414-0.341-3.55-0.747c-1.144-0.415-2.231-1.003-3.193-1.742c-1.642-1.368-3.002-3.135-3.815-5.1
				c-0.788-1.925-1.062-4.057-0.987-6.163c0.05-1.692,0.323-3.368,0.979-4.911c0.448-1.103,1.079-2.131,1.866-3.027
				c0.763-0.862,1.674-1.609,2.67-2.198c1.999-1.194,4.337-1.8,6.669-1.766c1.409,0.066,2.819,0.298,4.155,0.779
				c1.187,0.432,2.322,1.061,3.259,1.907c0.921,0.83,1.659,1.874,2.148,3.019c0.564,1.335,0.771,2.804,0.771,4.247
				c0.009,1.857,0.009,3.715,0.009,5.573C1040.56,197.401,1039.308,199.889,1037.367,201.59z"/>
			<path fill="#FFFFFF" d="M1315.056,188.385v18.778c0,0.913-0.323,1.874-0.954,2.505c-0.647,0.629-1.601,0.937-2.554,0.928
				c-0.938,0-1.875-0.299-2.53-0.912c-0.664-0.63-1.045-1.593-1.045-2.522v-18.777c0-6.005-4.786-10.094-10.02-10.094
				c-6.353,0-12.366,5.241-12.366,12.432v16.438c0,0.913-0.324,1.874-0.954,2.505c-0.647,0.63-1.6,0.929-2.546,0.929
				c-0.962,0.008-1.924-0.282-2.596-0.913c-0.672-0.623-1.053-1.585-1.053-2.522v-31.74c0-0.963,0.423-1.933,1.128-2.564
				c0.639-0.556,1.509-0.854,2.38-0.854c0.872,0.008,1.743,0.299,2.381,0.871c0.713,0.647,1.12,1.642,1.12,2.621v1.228
				c1.136-1.327,2.546-2.406,4.089-3.219c1.551-0.805,3.243-1.335,4.968-1.633c1.692-0.299,3.425-0.382,5.134-0.232
				c1.601,0.141,3.185,0.481,4.695,1.028c1.493,0.547,2.919,1.302,4.205,2.239c1.302,0.962,2.463,2.115,3.408,3.417
				c1.004,1.368,1.767,2.91,2.281,4.528C1314.79,184.636,1315.056,186.51,1315.056,188.385z"/>
		</g>
	</g>
</g>
</svg>
