<?xml version="1.0" encoding="utf-8"?>
<!-- Generator: Adobe Illustrator 16.0.0, SVG Export Plug-In . SVG Version: 6.00 Build 0)  -->
<!DOCTYPE svg PUBLIC "-//W3C//DTD SVG 1.1//EN" "http://www.w3.org/Graphics/SVG/1.1/DTD/svg11.dtd">
<svg version="1.1" id="Layer_1" xmlns="http://www.w3.org/2000/svg" xmlns:xlink="http://www.w3.org/1999/xlink" x="0px" y="0px"
	 width="245.259px" height="245.258px" viewBox="0 0 245.259 245.258" enable-background="new 0 0 245.259 245.258"
	 xml:space="preserve">
<g>
	<circle fill="#FFFFFF" stroke="#FFFFFF" stroke-miterlimit="10" cx="122.63" cy="43.889" r="23.38"/>
	<circle fill="#FFFFFF" stroke="#FFFFFF" stroke-miterlimit="10" cx="34.494" cy="132.024" r="9.166"/>
	<circle fill="#FFFFFF" stroke="#FFFFFF" stroke-miterlimit="10" cx="38.099" cy="156.972" r="9.166"/>
	<circle fill="#FFFFFF" stroke="#FFFFFF" stroke-miterlimit="10" cx="48.619" cy="179.88" r="9.165"/>
	<circle fill="#FFFFFF" stroke="#FFFFFF" stroke-miterlimit="10" cx="65.193" cy="198.873" r="9.165"/>
	<circle fill="#FFFFFF" stroke="#FFFFFF" stroke-miterlimit="10" cx="86.465" cy="212.398" r="9.165"/>
	<circle fill="#FFFFFF" stroke="#FFFFFF" stroke-miterlimit="10" cx="158.793" cy="212.398" r="9.165"/>
	<circle fill="#FFFFFF" stroke="#FFFFFF" stroke-miterlimit="10" cx="180.066" cy="198.873" r="9.165"/>
	<circle fill="#FFFFFF" stroke="#FFFFFF" stroke-miterlimit="10" cx="196.64" cy="179.88" r="9.165"/>
	<circle fill="#FFFFFF" stroke="#FFFFFF" stroke-miterlimit="10" cx="207.16" cy="156.972" r="9.166"/>
	<circle fill="#FFFFFF" stroke="#FFFFFF" stroke-miterlimit="10" cx="210.765" cy="132.024" r="9.165"/>
	<path fill="none" stroke="#FFFFFF" stroke-width="4.7365" stroke-linecap="round" stroke-linejoin="round" d="M188.92,222.968
		c12.653-8.358,23.592-19.014,32.28-31.444c9.412-13.468,15.965-28.717,19.256-44.814c3.288-16.101,3.245-32.698-0.13-48.781
		c-3.114-14.844-8.996-28.936-17.356-41.59c-8.359-12.654-19.014-23.592-31.444-32.28c-13.468-9.413-28.719-15.964-44.816-19.254
		c-16.101-3.29-32.698-3.247-48.78,0.128c-14.843,3.116-28.936,8.996-41.59,17.356c-12.654,8.359-23.592,19.016-32.28,31.446
		C14.646,67.203,8.094,82.452,4.804,98.549c-3.29,16.1-3.247,32.698,0.128,48.781c3.115,14.842,8.997,28.936,17.356,41.59
		c8.36,12.653,19.016,23.592,31.446,32.279c13.467,9.413,28.717,15.965,44.815,19.255c16.099,3.29,32.699,3.245,48.78-0.128
		C162.173,237.21,176.266,231.33,188.92,222.968z"/>
</g>
</svg>
