<?xml version="1.0" encoding="utf-8"?>
<!-- Generator: Adobe Illustrator 17.1.0, SVG Export Plug-In . SVG Version: 6.00 Build 0)  -->
<!DOCTYPE svg PUBLIC "-//W3C//DTD SVG 1.1//EN" "http://www.w3.org/Graphics/SVG/1.1/DTD/svg11.dtd">
<svg version="1.1" id="Layer_1" xmlns="http://www.w3.org/2000/svg" xmlns:xlink="http://www.w3.org/1999/xlink" x="0px" y="0px"
	 viewBox="0 0 1171.981 218.926" enable-background="new 0 0 1171.981 218.926" xml:space="preserve">
<g>
	<path fill="none" stroke="#FFFFFF" stroke-width="7" stroke-linecap="round" stroke-linejoin="round" d="M1137.088,165.556
		c4.547-35.025,8.601-36.123,14.694-45.098c6.395-9.419,15.033-27.514,16.554-49.908c1.182-17.352-4.888-34.417-16.761-47.127
		C1139.702,10.714,1123.088,3.5,1105.696,3.5s-34.005,7.214-45.879,19.924c-11.873,12.709-17.942,29.774-16.761,47.127
		c1.521,22.394,10.16,40.489,16.554,49.908c6.093,8.975,10.146,10.072,14.694,45.098"/>
	<path fill="#FFFFFF" d="M1147.309,58.483c-1.083,0.591-2.438,0.062-2.833-1.106c-4.126-12.204-12.994-22.231-24.603-27.818
		c-0.857-0.412-1.301-1.374-1.06-2.294c0.085-0.326,0.171-0.652,0.257-0.978c0.316-1.204,1.65-1.824,2.774-1.288
		c12.841,6.12,22.673,17.156,27.275,30.616c0.312,0.914-0.079,1.921-0.927,2.384C1147.898,58.161,1147.603,58.322,1147.309,58.483z"
		/>
	<path fill="#FFFFFF" d="M1145.405,200.301c0-3.309,0-6.618,0-9.927c0-2.742-2.223-4.964-4.964-4.964
		c2.741,0,4.964-2.222,4.964-4.963c0-3.309,0-6.618,0-9.927c0-2.741-2.223-4.964-4.964-4.964c-23.163,0-46.327,0-69.49,0
		c-2.741,0-4.963,2.223-4.963,4.964c0,3.309,0,6.618,0,9.927c0,2.741,2.222,4.963,4.963,4.963c-2.741,0-4.963,2.222-4.963,4.964
		c0,3.309,0,6.618,0,9.927c0,2.742,2.222,4.964,4.963,4.964c5.015,0,10.029,0,15.043,0c-0.102,0.576-0.153,1.149-0.153,1.734
		c0,5.482,4.445,9.927,9.927,9.927c6.619,0,13.236,0,19.855,0c5.483,0,9.927-4.445,9.927-9.927c0-0.585-0.051-1.158-0.153-1.734
		c5.015,0,10.029,0,15.044,0C1143.182,205.265,1145.405,203.043,1145.405,200.301z"/>
	<path fill="#FFFFFF" d="M957.131,99.138c-31.88,0-63.759,0-95.639,0c-2.935,0-5.313-2.378-5.313-5.313c0-3.542,0-7.084,0-10.626
		c0-2.935,2.379-5.313,5.313-5.313c31.879,0,63.759,0,95.639,0c2.934,0,5.313,2.379,5.313,5.313c0,3.542,0,7.084,0,10.626
		C962.444,96.76,960.065,99.138,957.131,99.138z"/>
	<path fill="#FFFFFF" d="M856.179,125.704c0,3.542,0,7.085,0,10.627c0,2.934,2.379,5.313,5.313,5.313c31.879,0,63.759,0,95.639,0
		c2.934,0,5.313-2.379,5.313-5.313c0-3.542,0-7.085,0-10.627c0-2.934-2.379-5.313-5.313-5.313c-31.88,0-63.759,0-95.639,0
		C858.558,120.392,856.179,122.771,856.179,125.704z"/>
	<path fill="none" stroke="#FFFFFF" stroke-width="4" stroke-linecap="round" stroke-linejoin="round" stroke-dasharray="15" d="
		M646.645,3.5c-28.344,0-55.414,11.212-75.456,31.254c-20.043,20.042-31.257,47.114-31.257,75.459
		c0,28.344,11.213,55.414,31.254,75.457c20.043,20.043,47.114,31.257,75.459,31.257c28.343,0,55.414-11.213,75.456-31.254
		c20.043-20.042,31.257-47.114,31.257-75.459c0-28.343-11.212-55.414-31.254-75.456C702.061,14.713,674.99,3.5,646.645,3.5z"/>
	<path fill="#FFFFFF" d="M755.361,85.277c4.716,4.716,9.432,9.432,14.148,14.148c2.604,2.605,2.604,6.828,0,9.432
		c-3.145,3.145-6.289,6.289-9.432,9.433c-2.602,2.601-6.818,2.605-9.424,0.009c-22.011-22.012-44.023-44.023-66.034-66.034
		c-2.604-2.605-2.604-6.827,0-9.432c3.144-3.144,6.288-6.288,9.432-9.432c2.605-2.604,6.828-2.604,9.432,0
		c4.716,4.716,9.433,9.432,14.148,14.148c4.995-4.995,9.991-9.99,14.986-14.986c4.062-4.063,8.125-8.125,12.188-12.188
		c10.419-10.419,27.31-10.419,37.729,0c10.418,10.418,10.418,27.31,0,37.729c-4.062,4.062-8.125,8.125-12.188,12.188
		C765.352,75.286,760.356,80.281,755.361,85.277z"/>
	<path fill="none" stroke="#FFFFFF" stroke-width="7" stroke-linecap="round" stroke-linejoin="round" d="M629.275,161.705
		c4.134-12.402,8.268-24.804,12.402-37.206c0.34-1.02,0.851-1.846,1.611-2.607c18.494-18.493,36.987-36.987,55.48-55.48
		c12.576,12.576,25.152,25.153,37.729,37.729c-18.494,18.493-36.987,36.986-55.48,55.48c-0.761,0.76-1.587,1.271-2.607,1.611
		c-12.402,4.134-24.804,8.268-37.206,12.402c-2.397,0.799-5.039,0.175-6.825-1.611c-1.164-1.164-2.328-2.328-3.492-3.492
		C629.1,166.744,628.476,164.102,629.275,161.705z"/>
	<path fill="#FFFFFF" d="M414.439,62.393c0,12.398,0,24.795,0,37.193c-12.398,0-24.796,0-37.193,0c-2.935,0-5.314,2.379-5.314,5.313
		c0,3.542,0,7.084,0,10.626c0,2.934,2.379,5.313,5.314,5.313c12.397,0,24.795,0,37.193,0c0,12.398,0,24.795,0,37.193
		c0,2.935,2.379,5.314,5.313,5.314c3.542,0,7.085,0,10.627,0c2.934,0,5.313-2.379,5.313-5.314c0-12.398,0-24.795,0-37.193
		c12.397,0,24.795,0,37.193,0c2.934,0,5.313-2.379,5.313-5.313c0-3.543,0-7.085,0-10.626c0-2.935-2.379-5.313-5.313-5.313
		c-12.398,0-24.796,0-37.193,0c0-12.397,0-24.795,0-37.193c0-2.934-2.379-5.313-5.313-5.313c-3.542,0-7.085,0-10.627,0
		C416.817,57.08,414.439,59.459,414.439,62.393z"/>
	<path fill="#FFFFFF" d="M0,184.841v10.83c0,11.74,9.52,21.26,21.26,21.26h276.29c11.73,0,21.25-9.52,21.25-21.26v-10.83H0z
		 M180.66,206.301h-42.51c-2.94,0-5.31-2.38-5.31-5.31c0-2.94,2.37-5.32,5.31-5.32h42.51c2.93,0,5.31,2.38,5.31,5.32
		C185.97,203.92,183.59,206.301,180.66,206.301z"/>
	<path fill="#FFFFFF" d="M255.04,3.501H63.76c-11.73,0-21.25,9.51-21.25,21.25v127.52c0,11.74,9.52,21.25,21.25,21.25h191.28
		c11.74,0,21.25-9.51,21.25-21.25V24.751C276.29,13.011,266.78,3.501,255.04,3.501z M255.04,146.96c0,2.93-2.38,5.31-5.31,5.31
		H69.08c-2.94,0-5.32-2.38-5.32-5.31V30.07c0-2.94,2.38-5.32,5.32-5.32h180.65c2.93,0,5.31,2.38,5.31,5.32V146.96z"/>
</g>
</svg>
