<?xml version="1.0" encoding="utf-8"?>
<!-- Generator: Adobe Illustrator 16.0.0, SVG Export Plug-In . SVG Version: 6.00 Build 0)  -->
<!DOCTYPE svg PUBLIC "-//W3C//DTD SVG 1.1//EN" "http://www.w3.org/Graphics/SVG/1.1/DTD/svg11.dtd">
<svg version="1.1" xmlns="http://www.w3.org/2000/svg" xmlns:xlink="http://www.w3.org/1999/xlink" x="0px" y="0px"
	 width="615.129px" height="615.129px" viewBox="-3.565 86.435 615.129 615.129"
	 enable-background="new -3.565 86.435 615.129 615.129" xml:space="preserve">
<g id="Layer_2_2_" display="none">
	
		<rect x="-458.5" y="-152.5" display="inline" fill="#DB1616" stroke="#000000" stroke-miterlimit="10" width="1330" height="1234"/>
</g>
<g id="Layer_1">
	<g id="Layer_2_1_" display="none">
		
			<rect x="-101.069" y="76.994" display="inline" fill="#3F0729" stroke="#FFFFFF" stroke-miterlimit="10" width="955.306" height="738.299"/>
	</g>
	<g id="Layer_1_2_">
		<g>
			<g id="Layer_1_1_">
				<circle fill="none" stroke="#FFFFFF" stroke-width="22" stroke-miterlimit="10" cx="304" cy="394" r="296.565"/>
			</g>
			<g id="Layer_2">
				<circle fill="#FFFFFF" cx="202.533" cy="179.098" r="33.967"/>
			</g>
			<g id="Layer_2_3_">
				<circle fill="#FFFFFF" cx="410.533" cy="179.098" r="33.967"/>
			</g>
			<g>
				<path fill="#FFFFFF" d="M410.534,565.284c10.926,0,19.813,8.888,19.813,19.814c0,10.926-8.888,19.813-19.813,19.813
					c-10.927,0-19.814-8.888-19.814-19.813C390.72,574.172,399.607,565.284,410.534,565.284 M410.534,551.132
					c-18.758,0-33.967,15.209-33.967,33.967c0,18.757,15.209,33.966,33.967,33.966c18.757,0,33.966-15.209,33.966-33.966
					C444.5,566.341,429.291,551.132,410.534,551.132L410.534,551.132z"/>
			</g>
			<g>
				<path fill="#FFFFFF" d="M198.534,571.284c10.926,0,19.813,8.888,19.813,19.814c0,10.926-8.888,19.813-19.813,19.813
					c-10.927,0-19.814-8.888-19.814-19.813C178.72,580.172,187.607,571.284,198.534,571.284 M198.534,557.132
					c-18.758,0-33.967,15.209-33.967,33.967c0,18.757,15.209,33.966,33.967,33.966c18.757,0,33.966-15.209,33.966-33.966
					C232.5,572.341,217.291,557.132,198.534,557.132L198.534,557.132z"/>
			</g>
			<g id="Layer_3" display="none">
			</g>
		</g>
	</g>
</g>
</svg>
