<?xml version="1.0" encoding="utf-8"?>
<!-- Generator: Adobe Illustrator 16.0.0, SVG Export Plug-In . SVG Version: 6.00 Build 0)  -->
<!DOCTYPE svg PUBLIC "-//W3C//DTD SVG 1.1//EN" "http://www.w3.org/Graphics/SVG/1.1/DTD/svg11.dtd">
<svg version="1.1" id="Layer_1" xmlns="http://www.w3.org/2000/svg" xmlns:xlink="http://www.w3.org/1999/xlink" x="0px" y="0px"
	 width="595.279px" height="841.891px" viewBox="0 0 595.279 841.891" enable-background="new 0 0 595.279 841.891"
	 xml:space="preserve">
<g id="Layer_2_1_" display="none">
	
		<rect x="-98.362" y="110.6" display="inline" fill="#3F0729" stroke="#FFFFFF" stroke-miterlimit="10" width="929.207" height="718.128"/>
</g>
<g id="Layer_1_2_">
	<g>
		<g id="Layer_1_1_">
			<circle fill="none" stroke="#FFFFFF" stroke-width="4" stroke-miterlimit="10" cx="295.64" cy="418.945" r="288.463"/>
		</g>
		<g id="Layer_2">
			<circle fill="#FFFFFF" cx="210.491" cy="213.67" r="33.039"/>
		</g>
		<g>
			<path fill="#FFFFFF" d="M211.887,602.136c10.628,0,19.272,8.646,19.272,19.272c0,10.628-8.645,19.272-19.272,19.272
				c-10.627,0-19.272-8.645-19.272-19.272C192.615,610.781,201.26,602.136,211.887,602.136 M211.887,588.37
				c-18.244,0-33.038,14.794-33.038,33.038c0,18.245,14.794,33.039,33.038,33.039c18.245,0,33.039-14.794,33.039-33.039
				C244.926,603.164,230.132,588.37,211.887,588.37L211.887,588.37z"/>
		</g>
		<g>
			<path fill="#FFFFFF" d="M380.894,602.137c10.628,0,19.272,8.646,19.272,19.272c0,10.628-8.645,19.272-19.272,19.272
				c-10.627,0-19.271-8.645-19.271-19.272C361.621,610.782,370.267,602.137,380.894,602.137 M380.894,588.371
				c-18.244,0-33.038,14.794-33.038,33.038c0,18.245,14.794,33.039,33.038,33.039c18.245,0,33.039-14.794,33.039-33.039
				C413.933,603.165,399.139,588.371,380.894,588.371L380.894,588.371z"/>
		</g>
		<g id="Layer_3" display="none">
		</g>
		<g id="Layer_2_5_">
			<circle fill="#FFFFFF" cx="379.497" cy="213.67" r="33.039"/>
		</g>
	</g>
</g>
</svg>
