<?xml version="1.0" encoding="utf-8"?>
<!-- Generator: Adobe Illustrator 16.0.0, SVG Export Plug-In . SVG Version: 6.00 Build 0)  -->
<!DOCTYPE svg PUBLIC "-//W3C//DTD SVG 1.1//EN" "http://www.w3.org/Graphics/SVG/1.1/DTD/svg11.dtd">
<svg version="1.1" id="Layer_2" xmlns="http://www.w3.org/2000/svg" xmlns:xlink="http://www.w3.org/1999/xlink" x="0px" y="0px"
	 width="83.558px" height="83.558px" viewBox="0 0 83.558 83.558" enable-background="new 0 0 83.558 83.558" xml:space="preserve">
<g id="XMLID_1_">
	<g>
		<path fill="#B21F27" d="M62.391,6.021c19.75,11.39,26.53,36.63,15.14,56.37c-11.38,19.75-36.62,26.53-56.37,15.14
			c-19.74-11.38-26.52-36.62-15.14-56.37C17.411,1.421,42.65-5.359,62.391,6.021z M61.15,32.171c1.39-1.39,1.39-3.65,0-5.04
			l-4.6-4.6c-1.39-1.39-3.65-1.39-5.04,0l-9.63,9.63l-9.73-9.73c-1.4-1.39-3.65-1.39-5.05,0l-4.59,4.6c-1.4,1.39-1.4,3.65,0,5.04
			l9.73,9.73l-9.73,9.73c-1.4,1.4-1.4,3.66,0,5.05l4.59,4.59c1.4,1.4,3.65,1.4,5.05,0l9.73-9.73l9.63,9.64
			c1.39,1.39,3.65,1.39,5.04,0l4.6-4.6c1.39-1.39,1.39-3.65,0-5.04l-9.63-9.64L61.15,32.171z"/>
	</g>
</g>
</svg>
