<?xml version="1.0" encoding="utf-8"?>
<!-- Generator: Adobe Illustrator 16.0.0, SVG Export Plug-In . SVG Version: 6.00 Build 0)  -->
<!DOCTYPE svg PUBLIC "-//W3C//DTD SVG 1.1//EN" "http://www.w3.org/Graphics/SVG/1.1/DTD/svg11.dtd">
<svg version="1.1" xmlns="http://www.w3.org/2000/svg" xmlns:xlink="http://www.w3.org/1999/xlink" x="0px" y="0px"
	 width="580.926px" height="580.926px" viewBox="5.177 128.482 580.926 580.926"
	 enable-background="new 5.177 128.482 580.926 580.926" xml:space="preserve">
<g id="Layer_1">
	<g id="Layer_2_1_" display="none">
		
			<rect x="-98.362" y="110.6" display="inline" fill="#3F0729" stroke="#FFFFFF" stroke-miterlimit="10" width="929.207" height="718.128"/>
	</g>
	<g id="Layer_1_2_">
		<g>
			<g id="Layer_1_1_">
				<circle fill="none" stroke="#FFFFFF" stroke-width="4" stroke-miterlimit="10" cx="295.64" cy="418.945" r="288.463"/>
			</g>
			<g id="Layer_3" display="none">
			</g>
		</g>
	</g>
</g>
<g id="Layer_2_2_">
	<g id="Layer_1_5_">
		<g>
			<g id="Layer_2_3_">
				<circle fill="#FFFFFF" cx="211.491" cy="215.67" r="33.039"/>
			</g>
			<g>
				<path fill="#FFFFFF" d="M212.888,604.136c10.628,0,19.271,8.646,19.271,19.272c0,10.628-8.645,19.271-19.271,19.271
					c-10.628,0-19.272-8.645-19.272-19.271S202.26,604.136,212.888,604.136 M212.888,590.37c-18.244,0-33.038,14.794-33.038,33.038
					c0,18.245,14.794,33.039,33.038,33.039s33.038-14.794,33.038-33.039C245.926,605.164,231.132,590.37,212.888,590.37
					L212.888,590.37z"/>
			</g>
			<g>
				<path fill="#FFFFFF" d="M381.895,604.137c10.628,0,19.272,8.646,19.272,19.272c0,10.628-8.646,19.271-19.272,19.271
					s-19.271-8.645-19.271-19.271C362.621,612.782,371.268,604.137,381.895,604.137 M381.895,590.371
					c-18.244,0-33.038,14.794-33.038,33.038c0,18.245,14.794,33.039,33.038,33.039c18.245,0,33.039-14.794,33.039-33.039
					C414.934,605.165,400.14,590.371,381.895,590.371L381.895,590.371z"/>
			</g>
			<g id="Layer_3_1_" display="none">
			</g>
			<g id="Layer_2_5_">
				<circle fill="#FFFFFF" cx="380.497" cy="215.67" r="33.039"/>
			</g>
		</g>
	</g>
</g>
</svg>
